<svg fill="none" height="32" viewBox="0 0 27 32" width="27" xmlns="http://www.w3.org/2000/svg"><path d="m13.5 0c-7.46569 0-13.5 6.11296-13.5 13.6316 0 6.2383 4.30895 10.364 9.37688 12.969 1.46032.7507 2.19372 2.1632 2.44372 3.9587.1077.7739.7607 1.4407 1.6295 1.4407h.0998c.8688 0 1.5218-.6668 1.6295-1.4407.25-1.7955.9834-3.208 2.4437-3.9587 4.8654-2.5008 9.3769-6.7254 9.3769-12.969 0-7.51864-6.0343-13.6316-13.5-13.6316z" fill="#fff" fill-opacity=".5"/><path d="m13.5 1c-6.90356 0-12.5 5.65535-12.5 12.6316 0 5.6871 3.90625 9.5467 8.83404 12.0796 1.85316.9526 2.70106 2.7279 2.97696 4.7102.0453.3252.314.5786.6391.5786h.0998c.3251 0 .5938-.2534.6391-.5786.2759-1.9823 1.1238-3.7576 2.977-4.7102 4.7324-2.4325 8.834-6.3925 8.834-12.0796 0-6.97625-5.5964-12.6316-12.5-12.6316z" fill="#4364fb"/><path d="m12.8419 6.47434-1.3419 4.02566-4.36567.4366c-.3601.036-.63433.339-.63433.7009 0 .2275.10987.441.29498.5732l3.20502 2.2893-1.28416 4.7086c-.1087.3986.19134.7914.60447.7914.11743 0 .23249-.033.33207-.0952l3.84762-2.4048 3.8476 2.4048c.0996.0622.2147.0952.3321.0952.4131 0 .7132-.3928.6045-.7914l-1.2842-4.7086 3.205-2.2893c.1851-.1322.295-.3457.295-.5732 0-.3619-.2742-.6649-.6343-.7009l-4.3657-.4366-1.3419-4.02566c-.0944-.28327-.3595-.47434-.6581-.47434s-.5637.19107-.6581.47434z" fill="#fff"/></svg>