<svg fill="none" height="32" viewBox="0 0 27 32" width="27" xmlns="http://www.w3.org/2000/svg"><path d="m13.5 0c-7.46569 0-13.5 6.11296-13.5 13.6316 0 6.2383 4.30895 10.364 9.37688 12.969 1.46032.7507 2.19372 2.1632 2.44372 3.9587.1077.7739.7607 1.4407 1.6295 1.4407h.0998c.8688 0 1.5218-.6668 1.6295-1.4407.25-1.7955.9834-3.208 2.4437-3.9587 4.8654-2.5008 9.3769-6.7254 9.3769-12.969 0-7.51864-6.0343-13.6316-13.5-13.6316z" fill="#fff" fill-opacity=".5"/><path d="m13.5 1c-6.90356 0-12.5 5.65535-12.5 12.6316 0 5.6871 3.90625 9.5467 8.83404 12.0796 1.85316.9526 2.70106 2.7279 2.97696 4.7102.0453.3252.314.5786.6391.5786h.0998c.3251 0 .5938-.2534.6391-.5786.2759-1.9823 1.1238-3.7576 2.977-4.7102 4.7324-2.4325 8.834-6.3925 8.834-12.0796 0-6.97625-5.5964-12.6316-12.5-12.6316z" fill="#4364fb"/><path d="m12.6773 19.1181c.2046.2422.5056.3819.8227.3819s.6181-.1397.8227-.3819l5.3676-6.3516c.2-.2367.3097-.5365.3097-.8463 0-.2733-.0854-.5397-.2442-.7621l-1.9567-2.73934c-.1877-.26279-.4908-.41876-.8137-.41876h-6.9708c-.32293 0-.626.15597-.81372.41876l-1.95665 2.73934c-.15884.2224-.24423.4888-.24423.7621 0 .3098.10972.6096.3097.8463zm1.8227-6.8681c0-.1374.0929-.2573.2259-.2916l.4586-.1184c.3215-.0829.5726-.334.6555-.6555l.1184-.4586c.0343-.133.1542-.2259.2916-.2259s.2573.0929.2916.2259l.1184.4586c.0829.3215.334.5726.6555.6555l.4586.1184c.133.0343.2259.1542.2259.2916s-.0929.2573-.2259.2916l-.4586.1184c-.3215.0829-.5726.334-.6555.6555l-.1184.4586c-.0343.133-.1542.2259-.2916.2259s-.2573-.0929-.2916-.2259l-.1184-.4586c-.0829-.3215-.334-.5726-.6555-.6555l-.4586-.1184c-.133-.0343-.2259-.1542-.2259-.2916zm-2.3386-2.2083.3275-.08454c.2297-.05926.409-.23859.4683-.46824l.0845-.32754c.0245-.095.1102-.16138.2083-.16138s.1838.06638.2083.16138l.0845.32754c.0593.22965.2386.40898.4683.46824l.3275.08454c.095.0245.1614.1102.1614.2083s-.0664.1838-.1614.2083l-.3275.0845c-.2297.0593-.409.2386-.4683.4683l-.0845.3275c-.0245.095-.1102.1614-.2083.1614s-.1838-.0664-.2083-.1614l-.0845-.3275c-.0593-.2297-.2386-.409-.4683-.4683l-.3275-.0845c-.095-.0245-.1614-.1102-.1614-.2083s.0664-.1838.1614-.2083z" fill="#fff"/></svg>