<svg fill="none" height="32" viewBox="0 0 27 32" width="27" xmlns="http://www.w3.org/2000/svg"><path d="m13.5 0c-7.46569 0-13.5 6.11296-13.5 13.6316 0 6.2383 4.30895 10.364 9.37688 12.969 1.46032.7507 2.19372 2.1632 2.44372 3.9587.1077.7739.7607 1.4407 1.6295 1.4407h.0998c.8688 0 1.5218-.6668 1.6295-1.4407.25-1.7955.9834-3.208 2.4437-3.9587 4.8654-2.5008 9.3769-6.7254 9.3769-12.969 0-7.51864-6.0343-13.6316-13.5-13.6316z" fill="#fff" fill-opacity=".5"/><path d="m13.5 1c-6.90356 0-12.5 5.65535-12.5 12.6316 0 5.6871 3.90625 9.5467 8.83404 12.0796 1.85316.9526 2.70106 2.7279 2.97696 4.7102.0453.3252.314.5786.6391.5786h.0998c.3251 0 .5938-.2534.6391-.5786.2759-1.9823 1.1238-3.7576 2.977-4.7102 4.7324-2.4325 8.834-6.3925 8.834-12.0796 0-6.97625-5.5964-12.6316-12.5-12.6316z" fill="#4364fb"/><path d="m10.6253 8c-.88909 0-1.67142.58688-1.92017 1.44042l-.4545 1.55958h-1.75063c-.27614 0-.5.2239-.5.5v.691c0 .1894.107.3625.27639.4472l.72361.3618v4.5c0 .5523.44772 1 1 1h.77924c.43043 0 .81257-.2754.94868-.6838l.27208-.8162h7l.2721.8162c.1361.4084.5182.6838.9487.6838h.7792c.5523 0 1-.4477 1-1v-4.5l.7236-.3618c.1694-.0847.2764-.2578.2764-.4472v-.691c0-.2761-.2239-.5-.5-.5h-1.7506l-.4545-1.55958c-.2488-.85354-1.0311-1.44042-1.9202-1.44042zm7.3739 4h-8.9984l.6644-2.27979c.12437-.42677.5155-.72021.9601-.72021h5.7494c.4446 0 .8357.29344.9601.72021zm-9.9992 1.5902c0-.3089.27743-.544.5822-.4932l2 .3334c.2411.0401.4178.2487.4178.4932v.5764c0 .2761-.2239.5-.5.5h-2c-.27614 0-.5-.2239-.5-.5zm10.4178-.4932c.3048-.0508.5822.1843.5822.4932v.9098c0 .2761-.2239.5-.5.5h-2c-.2761 0-.5-.2239-.5-.5v-.5764c0-.2445.1767-.4531.4178-.4932z" fill="#fff"/></svg>