<svg fill="none" height="32" viewBox="0 0 27 32" width="27" xmlns="http://www.w3.org/2000/svg"><path d="m13.5 0c-7.46569 0-13.5 6.11296-13.5 13.6316 0 6.2383 4.30895 10.364 9.37688 12.969 1.46032.7507 2.19372 2.1632 2.44372 3.9587.1077.7739.7607 1.4407 1.6295 1.4407h.0998c.8688 0 1.5218-.6668 1.6295-1.4407.25-1.7955.9834-3.208 2.4437-3.9587 4.8654-2.5008 9.3769-6.7254 9.3769-12.969 0-7.51864-6.0343-13.6316-13.5-13.6316z" fill="#fff" fill-opacity=".5"/><path d="m13.5 1c-6.90356 0-12.5 5.65535-12.5 12.6316 0 5.6871 3.90625 9.5467 8.83404 12.0796 1.85316.9526 2.70106 2.7279 2.97696 4.7102.0453.3252.314.5786.6391.5786h.0998c.3251 0 .5938-.2534.6391-.5786.2759-1.9823 1.1238-3.7576 2.977-4.7102 4.7324-2.4325 8.834-6.3925 8.834-12.0796 0-6.97625-5.5964-12.6316-12.5-12.6316z" fill="#4364fb"/><g fill="#fff"><path d="m13.5 7.5c0-.27614.2239-.5.5-.5h.823c.6133 0 1.1649.37343 1.3927.94291l1.6245 4.06129c.0529-.0028.1062-.0042.1598-.0042 1.6569 0 3 1.3431 3 3s-1.3431 3-3 3-3-1.3431-3-3c0-1.2504.765-2.3221 1.8524-2.7727l-.6065-1.5162-2.4267 4.7798c-.3252.6406-1.0589.9606-1.7496.7633l-2.70696-.7734c-.21465-.0614-.36264-.2576-.36264-.4808s.14799-.4194.36264-.4808l3.13946-.897-1.1729-2.3458c-.0847-.1694-.2578-.2764-.4472-.2764h-1.382c-.27614 0-.5-.2239-.5-.5s.22386-.5.5-.5h1.382c.5681 0 1.0875.321 1.3416.8292l1.4096 2.8191 2.1185-4.17279-.4645-1.16121c-.0759-.18982-.2598-.3143-.4642-.3143h-.823c-.2761 0-.5-.22386-.5-.5zm4.5 9.5c1.1046 0 2-.8954 2-2s-.8954-2-2-2-2 .8954-2 2 .8954 2 2 2z"/><path d="m9 12c.86781 0 1.6496.3685 2.1973.9575l-1.1624.3307c-.30189-.1829-.6561-.2882-1.0349-.2882-1.10457 0-2 .8954-2 2s.89543 2 2 2c.37828 0 .73203-.105 1.0337-.2875l1.1618.332c-.5477.5878-1.32865.9555-2.1955.9555-1.65685 0-3-1.3431-3-3s1.34315-3 3-3z"/></g></svg>