<svg fill="none" height="32" viewBox="0 0 27 32" width="27" xmlns="http://www.w3.org/2000/svg"><path d="m13.5 0c-7.46569 0-13.5 6.11296-13.5 13.6316 0 6.2383 4.30895 10.364 9.37688 12.969 1.46032.7507 2.19372 2.1632 2.44372 3.9587.1077.7739.7607 1.4407 1.6295 1.4407h.0998c.8688 0 1.5218-.6668 1.6295-1.4407.25-1.7955.9834-3.208 2.4437-3.9587 4.8654-2.5008 9.3769-6.7254 9.3769-12.969 0-7.51864-6.0343-13.6316-13.5-13.6316z" fill="#fff" fill-opacity=".5"/><path d="m13.5 1c-6.90356 0-12.5 5.65535-12.5 12.6316 0 5.6871 3.90625 9.5467 8.83404 12.0796 1.85316.9526 2.70106 2.7279 2.97696 4.7102.0453.3252.314.5786.6391.5786h.0998c.3251 0 .5938-.2534.6391-.5786.2759-1.9823 1.1238-3.7576 2.977-4.7102 4.7324-2.4325 8.834-6.3925 8.834-12.0796 0-6.97625-5.5964-12.6316-12.5-12.6316z" fill="#4364fb"/><path d="m8.2636 8.2636c.35148-.35147.92133-.35147 1.2728 0l3.9636 3.9636 3.9636-3.96359c.3514-.35148.9213-.35148 1.2728-.00001.3514.35147.3514.92132 0 1.27279l-3.9636 3.96361 3.9636 3.9636c.3514.3515.3514.9213 0 1.2728-.3515.3515-.9213.3515-1.2728 0l-3.9636-3.9636-3.9636 3.9636c-.35148.3515-.92132.3515-1.2728 0-.35147-.3515-.35147-.9213 0-1.2728l3.9636-3.9636-3.9636-3.9636c-.35147-.35148-.35147-.92133 0-1.2728z" fill="#fff"/></svg>