<svg fill="none" height="32" viewBox="0 0 27 32" width="27" xmlns="http://www.w3.org/2000/svg"><path d="m13.5 0c-7.46569 0-13.5 6.11296-13.5 13.6316 0 6.2383 4.30895 10.364 9.37688 12.969 1.46032.7507 2.19372 2.1632 2.44372 3.9587.1077.7739.7607 1.4407 1.6295 1.4407h.0998c.8688 0 1.5218-.6668 1.6295-1.4407.25-1.7955.9834-3.208 2.4437-3.9587 4.8654-2.5008 9.3769-6.7254 9.3769-12.969 0-7.51864-6.0343-13.6316-13.5-13.6316z" fill="#fff" fill-opacity=".5"/><path d="m13.5 1c-6.90356 0-12.5 5.65535-12.5 12.6316 0 5.6871 3.90625 9.5467 8.83404 12.0796 1.85316.9526 2.70106 2.7279 2.97696 4.7102.0453.3252.314.5786.6391.5786h.0998c.3251 0 .5938-.2534.6391-.5786.2759-1.9823 1.1238-3.7576 2.977-4.7102 4.7324-2.4325 8.834-6.3925 8.834-12.0796 0-6.97625-5.5964-12.6316-12.5-12.6316z" fill="#4364fb"/><path d="m9 19.5h.77924c.43046 0 .81256-.2754.94866-.6838l.2721-.8162h5l.2721.8162c.1361.4084.5182.6838.9487.6838h.7792c.5523 0 1-.4477 1-1v-5.5l.7236-.3618c.1694-.0847.2764-.2578.2764-.4472v-1.191c0-.2761-.2239-.5-.5-.5h-.5v-1.23742c0-1.02487-.7239-1.90341-1.7413-2.02691-.989-.12004-2.316-.23567-3.7587-.23567s-2.7697.11563-3.7587.23567c-1.0174.1235-1.7413 1.00204-1.7413 2.02691v1.23742h-.5c-.27614 0-.5.2239-.5.5v1.191c0 .1894.107.3625.27639.4472l.72361.3618v5.5c0 .5523.44772 1 1 1zm.59806-4.3804 1.50004.3c.2337.0468.4019.252.4019.4903v.5901c0 .2761-.2239.5-.5.5h-1.5c-.27614 0-.5-.2239-.5-.5v-.8901c0-.3155.28866-.5522.59806-.4903zm8.40194.4903v.8901c0 .2761-.2239.5-.5.5h-1.5c-.2761 0-.5-.2239-.5-.5v-.5901c0-.2383.1682-.4435.4019-.4903l1.5-.3c.3094-.0619.5981.1748.5981.4903zm-8.21886-7.36605c.63096-.12291 1.75166-.24385 3.71886-.24385s3.0879.12094 3.7189.24385c.5206.10143.7811.55414.7811 1.08458v4.17157c0 .2761-.2239.5-.5.5h-8c-.27614 0-.5-.2239-.5-.5v-4.17157c0-.53044.2605-.98315.78114-1.08458z" fill="#fff"/></svg>