<svg fill="none" height="32" viewBox="0 0 27 32" width="27" xmlns="http://www.w3.org/2000/svg"><path d="m13.5 0c-7.46569 0-13.5 6.11296-13.5 13.6316 0 6.2383 4.30895 10.364 9.37688 12.969 1.46032.7507 2.19372 2.1632 2.44372 3.9587.1077.7739.7607 1.4407 1.6295 1.4407h.0998c.8688 0 1.5218-.6668 1.6295-1.4407.25-1.7955.9834-3.208 2.4437-3.9587 4.8654-2.5008 9.3769-6.7254 9.3769-12.969 0-7.51864-6.0343-13.6316-13.5-13.6316z" fill="#fff" fill-opacity=".5"/><path d="m13.5 1c-6.90356 0-12.5 5.65535-12.5 12.6316 0 5.6871 3.90625 9.5467 8.83404 12.0796 1.85316.9526 2.70106 2.7279 2.97696 4.7102.0453.3252.314.5786.6391.5786h.0998c.3251 0 .5938-.2534.6391-.5786.2759-1.9823 1.1238-3.7576 2.977-4.7102 4.7324-2.4325 8.834-6.3925 8.834-12.0796 0-6.97625-5.5964-12.6316-12.5-12.6316z" fill="#4364fb"/><g fill="#fff"><path d="m19.1452 7.00593c-4.0548.1359-6.3839 2.57227-6.9871 3.29417-.1035.1239-.2539.1999-.4154.1999h-2.80661c-.5737 0-1.09816.3241-1.35472.8373-.04859.0972-.02955.2145.04729.2914l1.87134 1.8713-.30456.9137c-.11978.3593-.02626.7555.24158 1.0233l2.12598 2.126c.2678.2678.664.3613 1.0233.2416l.9137-.3046 1.8713 1.8714c.0769.0768.1943.0958.2914.0472.5132-.2565.8373-.781.8373-1.3547v-2.8066c0-.1615.076-.3119.1999-.4154.7219-.6032 3.1583-2.9322 3.2942-6.98711.0076-.22625-.084-.44471-.2441-.60478s-.3785-.25166-.6048-.24408zm-3.6452 5.99407c-.8284 0-1.5-.6716-1.5-1.5s.6716-1.5 1.5-1.5 1.5.6716 1.5 1.5-.6716 1.5-1.5 1.5z"/><path d="m7 20c.88098 0 1.76195-.291 2.47199-.6167.84801-.389.93771-1.4736.27801-2.1333-.65974-.6597-1.74428-.57-2.13327.278-.32569.7101-.61673 1.591-.61673 2.472z"/></g></svg>