<svg fill="none" height="32" viewBox="0 0 27 32" width="27" xmlns="http://www.w3.org/2000/svg"><path d="m13.5 0c-7.46569 0-13.5 6.11296-13.5 13.6316 0 6.2383 4.30895 10.364 9.37688 12.969 1.46032.7507 2.19372 2.1632 2.44372 3.9587.1077.7739.7607 1.4407 1.6295 1.4407h.0998c.8688 0 1.5218-.6668 1.6295-1.4407.25-1.7955.9834-3.208 2.4437-3.9587 4.8654-2.5008 9.3769-6.7254 9.3769-12.969 0-7.51864-6.0343-13.6316-13.5-13.6316z" fill="#fff" fill-opacity=".5"/><path d="m13.5 1c-6.90356 0-12.5 5.65535-12.5 12.6316 0 5.6871 3.90625 9.5467 8.83404 12.0796 1.85316.9526 2.70106 2.7279 2.97696 4.7102.0453.3252.314.5786.6391.5786h.0998c.3251 0 .5938-.2534.6391-.5786.2759-1.9823 1.1238-3.7576 2.977-4.7102 4.7324-2.4325 8.834-6.3925 8.834-12.0796 0-6.97625-5.5964-12.6316-12.5-12.6316z" fill="#4364fb"/><g fill="#fff"><path d="m17.8675 8.2534c.1206-.72328.7464-1.2534 1.4796-1.2534h.6529c.2761 0 .5.22386.5.5s-.2239.5-.5.5h-.6529c-.2444 0-.453.17671-.4932.4178l-.1927 1.15629c-.0009.00584-.0018.01164-.0029.0174l-.5477 3.28611c-.1053.6322-.6008 1.1277-1.233 1.233l-.7531.1255c-.4974.083-.893.4322-1.0506.8871l2.7753.3028c.6548.0715 1.1508.6245 1.1508 1.2832 0 .7129-.5779 1.2908-1.2908 1.2908h-8.2092c-.27614 0-.5-.2239-.5-.5s.22386-.5.5-.5h8.2092c.1606 0 .2908-.1302.2908-.2908 0-.1484-.1117-.273-.2593-.2891l-8.15163-.8894c-.37769-.0412-.69941-.2929-.83031-.6496l-1.65657-4.5138c-.0676-.1842-.10219-.37885-.10219-.57504 0-.43755.35471-.79226.79226-.79226h9.95084z"/><path d="m11 21c.5523 0 1-.4477 1-1s-.4477-1-1-1-1 .4477-1 1 .4477 1 1 1z"/><path d="m17 21c.5523 0 1-.4477 1-1s-.4477-1-1-1-1 .4477-1 1 .4477 1 1 1z"/></g></svg>