<svg fill="none" height="32" viewBox="0 0 27 32" width="27" xmlns="http://www.w3.org/2000/svg"><path d="m13.5 0c-7.46569 0-13.5 6.11296-13.5 13.6316 0 6.2383 4.30895 10.364 9.37688 12.969 1.46032.7507 2.19372 2.1632 2.44372 3.9587.1077.7739.7607 1.4407 1.6295 1.4407h.0998c.8688 0 1.5218-.6668 1.6295-1.4407.25-1.7955.9834-3.208 2.4437-3.9587 4.8654-2.5008 9.3769-6.7254 9.3769-12.969 0-7.51864-6.0343-13.6316-13.5-13.6316z" fill="#fff" fill-opacity=".5"/><path d="m13.5 1c-6.90356 0-12.5 5.65535-12.5 12.6316 0 5.6871 3.90625 9.5467 8.83404 12.0796 1.85316.9526 2.70106 2.7279 2.97696 4.7102.0453.3252.314.5786.6391.5786h.0998c.3251 0 .5938-.2534.6391-.5786.2759-1.9823 1.1238-3.7576 2.977-4.7102 4.7324-2.4325 8.834-6.3925 8.834-12.0796 0-6.97625-5.5964-12.6316-12.5-12.6316z" fill="#4364fb"/><g fill="#fff"><path d="m11.0811 8c-.4304 0-.8125.27543-.9487.68377l-.77203 2.31623h-1.0541l.87749-2.63246c.27223-.81668 1.03654-1.36754 1.89734-1.36754h4.8377c.8609 0 1.6252.55086 1.8974 1.36754l.8775 2.63246h-1.0541l-.7721-2.31623c-.1361-.40834-.5182-.68377-.9487-.68377z"/><path d="m20.3596 12c.3253 0 .564.3057.4851.6213l-.25 1c-.0557.2226-.2557.3787-.4851.3787h-.6096l-1.1213 4.4851c-.2226.8903-1.0225 1.5149-1.9403 1.5149h-5.8769c-.91769 0-1.71765-.6246-1.94024-1.5149l-1.12127-4.4851h-.60961c-.22943 0-.42942-.1561-.48507-.3787l-.25-1c-.07889-.3156.15979-.6213.48507-.6213zm-3.7774 2.0068c-.2724-.0454-.53.1386-.5754.411l-.5 3c-.0454.2724.1386.53.411.5754s.53-.1386.5754-.411l.5-3c.0454-.2724-.1386-.53-.411-.5754zm-2.5822.4932c0-.2761-.2239-.5-.5-.5s-.5.2239-.5.5v3c0 .2761.2239.5.5.5s.5-.2239.5-.5zm-3.5822-.4932c-.2724.0454-.4564.303-.411.5754l.5 3c.0454.2724.303.4564.5754.411s.4564-.303.411-.5754l-.5-3c-.0454-.2724-.303-.4564-.5754-.411z"/></g></svg>