<svg fill="none" height="32" viewBox="0 0 27 32" width="27" xmlns="http://www.w3.org/2000/svg"><path d="m13.5 0c-7.46569 0-13.5 6.11296-13.5 13.6316 0 6.2383 4.30895 10.364 9.37688 12.969 1.46032.7507 2.19372 2.1632 2.44372 3.9587.1077.7739.7607 1.4407 1.6295 1.4407h.0998c.8688 0 1.5218-.6668 1.6295-1.4407.25-1.7955.9834-3.208 2.4437-3.9587 4.8654-2.5008 9.3769-6.7254 9.3769-12.969 0-7.51864-6.0343-13.6316-13.5-13.6316z" fill="#fff" fill-opacity=".5"/><path d="m13.5 1c-6.90356 0-12.5 5.65535-12.5 12.6316 0 5.6871 3.90625 9.5467 8.83404 12.0796 1.85316.9526 2.70106 2.7279 2.97696 4.7102.0453.3252.314.5786.6391.5786h.0998c.3251 0 .5938-.2534.6391-.5786.2759-1.9823 1.1238-3.7576 2.977-4.7102 4.7324-2.4325 8.834-6.3925 8.834-12.0796 0-6.97625-5.5964-12.6316-12.5-12.6316z" fill="#4364fb"/><g fill="#fff"><path d="m8.67686 7.43881-.66506 3.99039c-.00785.0471-.0118.0948-.0118.1426 0 .5799.28982 1.1214.77233 1.4431l1.23227.8215c.1514.1009.236.2762.2209.4575l-.38525 4.6231c-.04858.583.41155 1.083.99655 1.083h.3264c.585 0 1.0451-.5.9965-1.083l-.3852-4.6231c-.0151-.1813.0695-.3566.2209-.4575l1.2323-.8215c.4825-.3217.7723-.8632.7723-1.4431 0-.0478-.0039-.0955-.0118-.1426l-.6651-3.99039c-.0422-.25322-.2613-.43881-.518-.43881-.3014 0-.541.25326-.5243.55428l.1972 3.55052c.012.2146-.1589.3952-.3738.3952-.1987 0-.3628-.1552-.3738-.3537l-.2027-3.64707c-.0155-.28009-.2472-.49923-.5277-.49923s-.5122.21914-.5277.49923l-.2027 3.64707c-.011.1985-.1751.3537-.3738.3537-.21495 0-.38577-.1806-.37384-.3952l.19725-3.55052c.01672-.30102-.22286-.55428-.52434-.55428-.25672 0-.4758.18559-.51801.43881z"/><path d="m15.6464 13.1464.7837.7837c.6729.6729.9866 1.6252.8454 2.5663l-.3532 2.3553c-.0907.6046.3775 1.1483.9889 1.1483h.0888c.5523 0 1-.4477 1-1v-11.25969c0-.40886-.3314-.74031-.7403-.74031-.1681 0-.3301.05603-.4511.17266-.5725.55154-2.2363 2.42449-2.3063 5.61884-.0029.1326.0504.2612.1441.3549z"/></g></svg>