<svg fill="none" height="32" viewBox="0 0 27 32" width="27" xmlns="http://www.w3.org/2000/svg"><path d="m13.5 0c-7.46569 0-13.5 6.11296-13.5 13.6316 0 6.2383 4.30895 10.364 9.37688 12.969 1.46032.7507 2.19372 2.1632 2.44372 3.9587.1077.7739.7607 1.4407 1.6295 1.4407h.0998c.8688 0 1.5218-.6668 1.6295-1.4407.25-1.7955.9834-3.208 2.4437-3.9587 4.8654-2.5008 9.3769-6.7254 9.3769-12.969 0-7.51864-6.0343-13.6316-13.5-13.6316z" fill="#fff" fill-opacity=".5"/><path d="m13.5 1c-6.90356 0-12.5 5.65535-12.5 12.6316 0 5.6871 3.90625 9.5467 8.83404 12.0796 1.85316.9526 2.70106 2.7279 2.97696 4.7102.0453.3252.314.5786.6391.5786h.0998c.3251 0 .5938-.2534.6391-.5786.2759-1.9823 1.1238-3.7576 2.977-4.7102 4.7324-2.4325 8.834-6.3925 8.834-12.0796 0-6.97625-5.5964-12.6316-12.5-12.6316z" fill="#4364fb"/><path d="m7.00991 10.065c-.0001-.0272-.00235-.0545-.00461-.08172-.00125-.01515-.00251-.03029-.00339-.04539-.01966-.33772.19371-1.93789 6.00369-1.93789 5.8088 0 6.0232 1.59955 6.0036 1.93769-.0009.0152-.0021.03044-.0034.04569l-.0014.01722c1.1068.0262 1.9959.9316 1.9959 2.0447 0 .7745-.4374 1.4825-1.13 1.8291l-1.6005.8007c-.4885 1.3826-1.149 2.3694-1.7485 3.0479-.8698.9844-2.2053 1.277-3.5189 1.277-1.3168 0-2.6556-.2943-3.52511-1.2833-1.121-1.275-2.45315-3.634-2.46738-7.6517zm11.63629 3.3036.7766-.3885c.354-.1772.5775-.539.5775-.9348 0-.5713-.4583-1.0356-1.0273-1.0451-.0504.8745-.1658 1.6616-.3268 2.3684zm-3.0448-2.4943c.7545-.0837 1.3429-.1989 1.7652-.3455.4223-.1536.6334-.3281.6334-.5236 0-.20241-.2111-.37693-.6334-.52352-.4223-.15358-1.0107-.27226-1.7652-.35603-.7489-.08377-1.616-.12565-2.6014-.12565s-1.8553.04188-2.6098.12565c-.74887.08377-1.33446.20245-1.75675.35603-.4223.14659-.63345.32111-.63345.52352 0 .1955.21115.37.63345.5236.42229.1466 1.00788.2618 1.75675.3455.7545.0838 1.6244.1257 2.6098.1257s1.8525-.0419 2.6014-.1257z" fill="#fff"/></svg>