<svg fill="none" height="32" viewBox="0 0 27 32" width="27" xmlns="http://www.w3.org/2000/svg"><path d="m13.5 0c-7.46569 0-13.5 6.11296-13.5 13.6316 0 6.2383 4.30895 10.364 9.37688 12.969 1.46032.7507 2.19372 2.1632 2.44372 3.9587.1077.7739.7607 1.4407 1.6295 1.4407h.0998c.8688 0 1.5218-.6668 1.6295-1.4407.25-1.7955.9834-3.208 2.4437-3.9587 4.8654-2.5008 9.3769-6.7254 9.3769-12.969 0-7.51864-6.0343-13.6316-13.5-13.6316z" fill="#fff" fill-opacity=".5"/><path d="m13.5 1c-6.90356 0-12.5 5.65535-12.5 12.6316 0 5.6871 3.90625 9.5467 8.83404 12.0796 1.85316.9526 2.70106 2.7279 2.97696 4.7102.0453.3252.314.5786.6391.5786h.0998c.3251 0 .5938-.2534.6391-.5786.2759-1.9823 1.1238-3.7576 2.977-4.7102 4.7324-2.4325 8.834-6.3925 8.834-12.0796 0-6.97625-5.5964-12.6316-12.5-12.6316z" fill="#4364fb"/><path d="m7.5 12.6636c0-.4227.17828-.8257.49099-1.11l4.63901-4.21726c.2381-.21642.5483-.33634.87-.33634s.6319.11992.87.33634l4.639 4.21726c.3127.2843.491.6873.491 1.11v5.3364c0 .5523-.4477 1-1 1h-2.25c-.4142 0-.75-.3358-.75-.75v-3c0-.4142-.3358-.75-.75-.75h-2.5c-.4142 0-.75.3358-.75.75v3c0 .4142-.3358.75-.75.75h-2.25c-.55228 0-1-.4477-1-1z" fill="#fff"/></svg>