<svg id="Layer_1" xmlns="http://www.w3.org/2000/svg" viewBox="0 0 424.42 512">
	<defs>
		<style>
			.cls-2,.cls-4{stroke-width:0}.cls-5{fill:#fff;stroke:#05abcf;stroke-miterlimit:10;stroke-width:2px}.cls-2{fill:#00acd2}.cls-4{fill:#f78900}
		</style>
	</defs>
	<g id="Laag_1-2">
		<g id="Bird">
			<path class="cls-2"
				d="m424.42 357.32-3.3 92.48-8.26-7.16-6.61 53.95-13.76-111.2s19.26-10.46 31.93-28.08Z" />
			<path class="cls-4"
				d="M385.33 388.14 400.74 512l-34.68-113.4-6.06 1.1-2.2-1.1s15.96-4.96 27.52-10.46h.01Z" />
			<path class="cls-2"
				d="m279.09 140.98-42.93-8.81-18.71-20.37-37.98-9.36-4.41-22.02L0 53.45c4.41-1.65 35.23-3.3 35.23-3.3l109.55-11.01 15.96 27.52h15.96l73.76 37.44 7.16 23.67 21.47 13.21Z" />
			<path d="m160.74 52.35 4.96 8.26h18.16l4.96-8.26-9.36-9.36-18.71 9.36Z"
				style="fill:#000;stroke-width:0" />
			<path class="cls-2"
				d="m149.73 36.39 6.61 10.46 24.77-12.66 17.06 17.06-5.51 8.81 102.39-1.65 35.79 71.01s9.36-35.23-1.65-65.5v-6.06l-9.36-8.26 2.2-12.12-13.76-5.51 1.1-9.91s-26.42-20.9-63.3-22c-36.89-1.1-81.47 13.76-96.33 36.34h-.01Z" />
			<path class="cls-5" d="m159.09 104.1 54.5 12.66 13.21 14.31-53.4 9.91-14.31-36.89Z" />
			<path class="cls-4"
				d="m165.7 137.13-64.95 84.23 50.09 100.74 188.82 89.72 15.96-9.36-80.92-105.14-34.68-7.16-54.5-56.7-5.51-67.7 50.09-26.97-.55-1.65-60.01 12.66-3.85-12.66h.01Z" />
			<path class="cls-2"
				d="m355.61 191.63-64.95-41.28-48.99-8.26-52.3 28.08 6.06 57.8 47.89 52.3 35.79 7.71 75.41 102.39s19.81-4.96 36.34-14.31c15.41-9.36 24.22-18.71 31.38-26.97l-66.6-157.44h-.02Z" />
			<path class="cls-4" d="m189.92 65.57 63.3 31.38 50.64-6.61-13.21-25.87-100.74 1.1Z" />
			<path class="cls-5" d="m258.72 103.55 6.06 19.26 85.33 56.7-42.93-82.57-48.44 6.61h-.01Z" />
			<path class="cls-4" d="M168.45 87.04 12.12 60.61l-1.1 2.2 160.19 37.98-2.75-13.76" />
			<path d="m166.25 46.31 13.76-7.16 11.56 11.56-6.61-1.1-5.51-4.96-13.21 4.41v-2.75Z"
				style="stroke-width:0;fill:none" />
		</g>
	</g>
</svg>
