<svg xmlns="http://www.w3.org/2000/svg" id="Laag_2" data-name="Laag 2" viewBox="0 0 2664 930">
  <defs>
    <style>
      .cls-1{fill:none}
      .cls-2{fill:#f78803}
      .cls-3,.cls-4{fill:#fff}
      .cls-5{fill:#0eacd0}
      .cls-6{fill:#0dacd1}
      .cls-4{stroke:#0dacd1;stroke-miterlimit:10;stroke-width:2px}
      @media print {
        .cls-3,
        .cls-4{fill:#000}
      }
    </style>
  </defs>
  <g id="Laag_1-2" data-name="Laag 1">
    <g id="Rope">
      <path d="M2598 688c-9 15-20 29-30 43-8 12-18 18-32 21-29 8-59 9-88-1l-11-5-4-3 20-10c11-7 22-15 31-26 1-2 3-3 5-2 38 8 73 1 106-16l3-1ZM2533 767c-56 61-142 43-181 6 4-3 9-3 13-4 16-4 32-8 46-15 4-2 8-2 12 0 26 14 54 20 83 18 9-1 17-2 27-5Z" class="cls-5"/>
      <path d="M2279 778c17 1 34-1 50-5 3-1 4 0 6 2a144 144 0 0 0 111 45c0 2-2 2-3 2-15 6-31 12-46 16-10 4-19 1-29 0-29-6-55-18-76-41-5-5-10-11-13-19ZM2589 448v-14c0-3-1-5-5-4-3 0-4-1-4-4-1-20 8-35 25-45 17-9 46 2 53 20 1 2 0 4-1 6-8 16-21 28-34 39l-31 20c-3 1-4 0-3-3v-15ZM2161 746c8 5 16 9 25 12 5 2 10 3 13 6 4 3 3 9 5 13 13 31 32 56 61 73l3 2-17-1-29-4c-10-2-19-7-26-14-23-23-34-51-36-83l1-4Z" class="cls-5"/>
      <path d="M2351 846c-13 4-26 5-38 6-10 1-18-1-26-5-35-17-59-43-74-79 2-2 3 0 5 0 13 4 26 7 40 7 4 0 6 1 7 6 8 21 24 36 43 48 14 8 28 13 43 17ZM2180 837c-13-4-27-8-40-15-5-2-8-7-10-11-14-20-23-42-25-66 0-9 1-17 3-26 1-2 2-3 4-1 12 6 23 13 33 20 3 2 2 4 2 7 0 21 3 41 12 60 6 12 13 22 21 32ZM1591 801l1-23c-2-18-8-34-16-50-2-3-1-5 1-7l11-10h6c18 13 36 27 50 45 9 12 8 11-2 20-15 12-32 20-51 25ZM1325 785a182 182 0 0 0 65-54c3-3 5-4 10-1 9 5 19 11 30 13 3 0 2 2 2 4-4 7-8 13-14 18-14 14-29 25-46 34l-4 1c-15-4-29-9-43-15ZM1482 751c-6 24-18 43-33 61-6 9-12 11-23 7l-36-12-7-4c23-10 42-25 59-43l8-11c1-3 2-3 5-2 8 3 17 5 27 4ZM2112 808c-15-7-28-13-41-21-4-2-5-5-6-9a6488 6488 0 0 0-11-75c0-2 4-2 10-1 13 2 19 6 30 10 2 1 3 2 3 4-6 34-2 60 15 90v2ZM841 884c19-22 30-46 32-74 0-2 0-3 2-3 9 0 16-4 24-8 2-1 3-1 4 2 7 26 6 52-5 77l-4 4c-18 4-35 3-53 2ZM1452 825a117 117 0 0 0 41-71c0-1 0-3 2-3 9 2 17-1 25-4 3-2 4-1 4 2 4 27 0 52-14 76-2 3-4 3-6 4-11 0-22 0-33-2l-19-2ZM1603 702c8-7 16-13 27-14 16-1 38 14 50 23 10 9 20 17 28 28 2 2 3 4-1 5l-35 15c-3 1-5 1-7-2-14-19-31-36-51-49l-11-6ZM1290 765c19-18 30-40 39-63 1-3 1-4 5-3 13 5 27 10 39 18 2 1 4 2 2 6-15 23-36 40-58 56-1 1-2 2-4 1l-23-15ZM1525 824c6-15 11-29 13-44 1-12 1-24-2-36 0-3 1-4 3-5l19-10c2-1 3-1 5 2 12 22 19 45 16 71 0 3-1 5-4 7-16 6-33 11-50 15ZM913 875c4-15 7-29 7-44 0-12-1-24-5-36-1-2-1-4 2-5l17-12c2-1 3-1 5 1 15 20 24 42 25 67 0 5-1 8-6 11l-42 17-3 1ZM297 616c-23 17-42 37-53 64l-5 14-2 3c-13 0-25 6-36 10l-3 1a127 127 0 0 1 56-87c1-1 3-3 5-3l38-2ZM106 670c-5 15-10 30-11 46-2 19-1 38 9 54 1 3 1 4-1 5l-16 17c-2 3-3 2-5 0a66 66 0 0 1-19-40c-2-17 1-34 7-50 1-2 1-4 3-5l33-27ZM156 732c-2-15-1-29 2-42 4-18 11-35 22-49 5-7 11-11 18-13 11-4 23-6 33-8l-9 11c-21 22-32 48-35 77 0 5-2 7-7 9-9 2-17 7-24 15ZM163 640c-6 11-13 23-17 36-7 19-9 39-3 59 0 1 1 3-1 4l-28 24c-3-8-4-17-5-26-3-28 3-54 19-77l8-7 27-13ZM251 693c8-17 17-31 28-45 9-10 19-19 30-26 6-4 12-5 19-4l23 4c-1 3-4 4-6 6-16 14-32 29-45 47l-9 15c-1 2-2 4-4 3h-36Z" class="cls-5"/>
      <path d="m56 712-2 20c-2 25 4 47 19 67 4 6 4 7-1 12s-11 8-17 11h-5a96 96 0 0 1-26-77c0-2 0-3 2-4 10-10 19-20 30-29ZM549 711c-17 9-33 18-46 31-5 6-10 6-17 4-10-4-21-7-32-9-3-1-3-3-2-6 13-19 29-32 50-40l4-1 43 21ZM441 659c-12 6-23 12-34 20-10 7-19 15-26 25l-5 2c-11-3-22-4-34-5 1-4 4-7 6-11 12-21 29-37 50-48h6l37 17ZM1049 770l-1 3c-8 11-18 20-28 28-2 2-3 1-4-1-11-23-27-43-46-61-3-3-3-4 0-7l6-7c3-5 5-6 10-3 22 12 42 27 60 44 2 1 3 2 3 4ZM392 712c17-20 36-36 59-46h3l34 16a172 172 0 0 0-48 43c-2 2-2 4-5 2-14-7-28-12-43-15ZM609 739l-30 18-20 14c-1 1-2 2-4 1l-46-19a302 302 0 0 1 53-33c2-1 3-2 5-1l42 20ZM989 714l17-12h6c28 5 54 16 76 35 2 2 2 3-1 5l-20 13c-4 2-7 6-11 6-3 0-5-5-8-8-16-15-35-27-55-36l-3-2-1-1ZM977 841c0-28-12-51-28-73-2-2-2-4 0-7l7-11c2-4 4-3 7-1 11 7 19 16 27 26 7 10 14 20 19 31 1 3 1 5-1 8-8 11-22 24-31 27ZM391 636a197 197 0 0 0-63 62c-2 3-4 3-7 2l-12-2c-4-1-5-3-3-6 5-12 12-22 20-31 11-13 23-24 37-35 2-1 4-2 6-1l22 11ZM1317 694v1c-8 22-18 43-34 61-3 3-6 5-11 2l-13-7c-3-1-4-2-2-4 10-14 17-29 22-45 1-2 2-3 4-3 11-1 21-2 30-8 1-1 2-2 3-1l1 4ZM1082 656l34-11c3-1 3 0 3 2 0 7 0 14 2 21 4 18 14 27 32 30l6 1c9 1 9 1 11 9 0 3 2 7 0 9-1 2-5 0-8 0-7 0-14-1-20 2-2 0-2 0-3-2-11-27-31-46-57-61ZM1129 721c-10 2-17 6-25 10-1 1-3 3-5 1-14-15-32-23-51-30l-3-2 4-1h61c3 0 5 1 7 4l12 18ZM1248 699h13c3 0 4 1 3 4-4 14-9 28-17 40-3 4-5 5-8 2l-11-8c-3-2-3-3-2-6l5-28c0-3 1-4 4-4h13ZM13 758c2 25 9 47 27 66-14-2-26-4-34-15-6-8-7-19-5-30 2-8 6-14 12-21ZM1200 699h14c2 0 3 1 3 4l-4 20c-1 2-2 4-5 3l-20-5c-3-1-4-2-4-5l-2-13c0-3 1-4 3-4h15ZM1201 645h-19c3-3 4-3 19 0ZM56 712l1-1-1 1ZM2636 605ZM704 762l-19-10h-7l-15 9c-2 2-4 2-7 1l-27-13c-3-2-5-2-8 0-17 8-32 18-47 30a656 656 0 0 0 45 26c2 1 4 0 5-1 10-8 20-14 30-20 16-8 33-15 51-20l-1-2ZM709 777a211 211 0 0 0-73 36 755 755 0 0 1 50 23l35-20-12-39ZM725 829l-24 13 32 14-8-27ZM859 808c-9 2-17 0-26-2l-13-5-1 17a13 13 0 0 1-18 11l-6 48 28 6c3 0 5 0 8-4l14-21c8-14 13-30 16-47 0-1 1-3-2-3ZM1753 699h-63v-33c-8-3-15-5-17-4-8 3-24 7-24 13 0 8 22 16 30 23 16 11 29 24 43 36 2 2 4 2 7 1 12-7 24-12 37-17 4-2 4-3 1-5-3-5-8-9-14-14ZM1856 698l-19 1h-62l3 3c4 3 7 10 16 8l18-2c16-2 32-1 48 0h4c1-1-1-2-1-4l-7-6ZM1831 634v-4l-8-1-19 12 6 4h21v-11ZM1929 702c-1-2-17-31-34-44l-9-7v4c0 16-4 27-12 34v1l-6 3c5 6 10 12 13 18 1 2 2 3 5 3 15 1 31 3 46 8 3 1 4 0 3-3-1-6-3-11-6-17ZM1916 649v-5c-9-3-19-6-28-7 10 6 20 12 28 20v-8ZM1965 699c-10 0-19-1-26-4 4 9 7 19 10 32 0 3 1 4 4 5 12 3 24 8 35 15 3 2 4 2 4-2 0-9 0-29-4-46h-23ZM2039 699h-40l4 49c0 3 2 4 4 5 13 5 23 8 36 16l11 8v-1c-5-44-4-42-10-68 0-2-3-8-5-9ZM2663 461c1-12 0-24-1-37-19 25-43 42-71 56l-2 1c-1 4-3 3-5 3-4 0-7 1-7 6l-4 31 4 3c6 5 1 14 3 22 24-11 52-30 70-50 9-9 15-20 13-33v-2ZM2652 514c-19 19-39 35-63 43l-9 1v51c20-6 47-14 60-25l5-8c7-21 9-43 10-66l-3 4ZM2636 605ZM2636 605c-13 10-14 15-29 19l1 32h-13c0 10-1 14-4 20l7-4c7-5 14-10 18-18l18-42c1-2 3-5 2-7Z" class="cls-5"/>
    </g>
    <g id="DinkelSurvivalRun">
      <path d="M858 166V75c0-4 1-5 5-5h117c18 0 36 2 54 9 30 12 49 33 54 66 4 22 2 45-8 66a83 83 0 0 1-65 47l-44 3H863c-4 0-5-1-5-4v-91Zm44-1v56c0 3 1 5 5 5l55-1c14 0 27-1 41-4 18-5 32-14 38-33 4-14 4-28 1-42-4-20-16-33-35-39l-24-3h-76c-4 0-5 1-5 5v56ZM994 615l87 71-5 1h-52c-4 0-6-1-8-3l-71-67-6-2h-35c-3 0-4 1-4 4v63c0 4-1 5-4 5h-34c-4 0-5-1-5-5V502c0-4 1-5 5-5h135c12 0 24-1 36 1 19 3 29 14 29 33v45c0 26-11 37-37 39h-31Zm-41-85v-1h-49c-3 0-4 1-4 4v45c0 4 1 5 5 5h91l10-1c10-1 14-5 14-14v-23c0-10-4-15-14-15h-53ZM959 471h-64l-17-2c-13-3-20-10-23-23l-2-21c0-2 0-4 3-4l33-7c2-1 3 0 3 3v16c0 2 0 3 3 3h128c2 0 3-1 3-3v-38c0-4-2-3-4-3H914l-25-1c-16-3-24-9-26-25-3-19-3-38 0-57 2-17 11-24 29-26l15-1a20792 20792 0 0 1 132 3c12 2 19 10 22 23 1 5 3 12 1 17-3 6-10 4-16 6l-19 5c-2 0-4 0-3-3v-14c0-3-1-4-4-4H904c-4 0-5 1-5 4v32c0 4 1 5 5 5h116l17 1c17 4 24 10 27 28 2 20 2 39-1 59-2 16-10 23-27 26l-22 1h-55ZM1515 414l71 56c-1 2-3 1-4 1h-43c-4 1-6-1-9-3l-57-52c-3-3-6-4-10-4h-26c-3 0-5 1-5 5l1 49c0 4-1 6-5 6l-28-1c-3 1-5 0-4-4V320c0-3 0-4 3-4h136l16 2c12 3 19 10 20 22v47c0 15-9 23-26 25h-30v2Zm-35-28h41l8-1c4-1 7-4 7-8v-25c0-5-3-7-7-8l-8-1h-85c-3 0-3 1-3 3v36c-1 4 1 4 4 4h43ZM1300 155v101c0 4-1 5-5 5h-25c-3 0-4 0-4-4V109c0-3 0-5 3-4h1c15-2 27 3 38 13l112 87 4 4 1-6-1-93c0-4 1-5 5-5h26c3 0 4 1 4 3v149c0 3-1 4-4 4h-20l-6-3-125-99-4-4ZM1544 635v-99c0-4 0-5 5-5h25c3 0 4 0 4 4v148c0 3-1 4-4 4h-1c-15 2-26-4-37-13l-112-89-4-4v101c0 4-1 5-5 5h-24c-4 0-6-1-5-5V536c0-4 0-5 4-5 15-2 26 3 38 12l110 88 6 4ZM1843 261h-79c-4 0-6 0-6-5V109c0-3 1-4 5-4h159c3 0 4 1 4 4v19c0 4-1 4-4 4h-120c-4 0-5 1-5 5v25c0 4 1 5 5 5h66c4 0 4 1 4 4v18c0 3-1 4-4 4h-66c-4 0-5 1-5 5v29c0 4 1 5 5 5h121c4 0 5 1 5 5v20c0 4-1 4-4 4h-81ZM1234 471h-56l-11-1c-16-2-23-10-24-26V321c-1-4 1-5 4-5h28c4 0 5 1 5 5v116c0 4 1 6 5 6l99-1c3 1 4 0 4-4V321c0-4 1-5 6-5h29c2 0 3 1 3 4v119l-1 12c-4 13-12 19-29 20h-62ZM1132 596v-60c0-4 1-5 5-5h28c4 0 4 1 4 5v116c0 5 1 6 6 6h99c3 0 4-1 4-5V536c0-4 1-5 5-5h30c2 0 3 1 3 4v118l-1 11c-3 14-10 20-26 22l-16 1a21021 21021 0 0 1-116-1c-17-3-24-11-25-29v-61ZM1567 168l43-29 45-32 5-2 52 1-107 71 119 83c-1 2-3 1-4 1h-50l-8-2-90-65-4-3-1 4v62c0 3 0 4-4 4h-30c-3 0-4-1-4-3V109c0-4 1-4 4-4h30c4 0 4 1 4 4v59ZM2377 471h-40c-3 0-3-1-4-3l-16-28c-1-2-3-3-5-3h-96c-3 0-4 1-5 3l-16 28c-1 2-3 4-6 3h-33l2-3 88-149c1-2 2-3 5-3h29c2 0 4 1 5 3l91 151 1 1Zm-77-62-36-65-35 65h71ZM1939 316h39a83805 83805 0 0 0 67 108c0 2 1 3 3 4l37-67 23-42c1-2 3-3 5-3h34c1 2 0 3-1 4l-86 148c-1 3-2 3-5 3-7 0-15 2-21 0-6-3-8-11-12-17l-81-133-2-5ZM2064 261h-75c-4 0-6 0-6-5V110c0-4 1-5 5-5h30c3 0 4 1 4 4v118c0 4 1 5 5 5h113c4 0 5 1 5 5v20c0 3-1 4-5 4h-76ZM2496 471h-75c-4 0-5-1-5-4V321c0-4 1-5 5-5h29c3 0 4 1 4 4v117c0 4 1 6 5 5h112c4 0 5 1 5 5v20c0 4-1 4-5 4h-75ZM1891 394v73c0 4-1 5-5 4h-29c-3 0-4 0-4-4V320c0-3 1-4 4-4h29c4 0 5 1 5 5v73ZM1196 183v72c0 5-2 6-6 6h-28c-3 0-4-1-4-4V109c0-4 1-4 4-4h30c3 0 4 1 4 4v74ZM1810 316l-35 59-53 92c-2 3-4 5-7 4h-17c-3 1-5 0-6-3l-91-149-1-3h26c13-2 19 3 25 14 17 32 36 63 54 94l3 5 27-48 34-61c1-3 3-4 6-4h35Z" class="cls-3"/>
    </g>
    <g id="Year">
      <path d="M1711 558c0-11 3-20 7-24 5-5 15-7 29-7h82c14 0 24 2 29 7 5 4 7 13 7 24v11c0 7-1 13-3 17-3 4-8 9-17 15l-94 57h93v-24l29 8v13c0 12-2 20-7 25-5 4-15 6-29 6h-134v-14c0-7 1-12 4-17l16-12 110-68v-21h-91v33l-31-8v-21ZM1929 565c0-15 2-25 7-30 6-5 15-8 29-8h108c14 0 23 3 29 8 4 5 7 15 7 30v84c0 14-2 24-7 29-6 6-15 8-29 8h-108c-14 0-23-2-29-8-5-5-7-15-7-29v-84Zm33 93h114V554h-114v104ZM2187 558c0-11 3-20 8-24 5-5 14-7 29-7h81c14 0 24 2 29 7 5 4 7 13 7 24v11c0 7-1 13-3 17s-8 9-17 15l-94 57h93v-24l29 8v13c0 12-2 20-7 25-5 4-15 6-29 6h-134v-14c0-7 2-12 5-17 3-4 8-8 15-12l110-68v-21h-90v33l-32-8v-21Z" class="cls-3"/>
    </g>
    <g id="Bird">
      <path d="m812 649-6 168-15-13-12 98-25-202s35-19 58-51Z" class="cls-6"/>
      <path d="m741 705 28 225-63-206-11 2-4-2s29-9 50-19Z" class="cls-2"/>
      <path d="m548 256-78-16-34-37-69-17-8-40L41 97c8-3 64-6 64-6l199-20 29 50h29l134 68 13 43 39 24Z" class="cls-6"/>
      <path d="M367 186" class="cls-1"/>
      <path d="m333 95 9 15h33l9-15-17-17-34 17z"/>
      <path d="m313 66 12 19 45-23 31 31-10 16 186-3 65 129s17-64-3-119v-11l-17-15 4-22-25-10 2-18S555 2 488 0 340 25 313 66Z" class="cls-6"/>
      <path d="m330 189 99 23 24 26-97 18-26-67z" class="cls-4"/>
      <path d="M342 249 224 402l91 183 343 163 29-17-147-191-63-13-99-103-10-123 91-49-1-3-109 23-7-23z" class="cls-2"/>
      <path d="m687 348-118-75-89-15-95 51 11 105 87 95 65 14 137 186s36-9 66-26c28-17 44-34 57-49L687 348Z" class="cls-6"/>
      <path d="m386 119 115 57 92-12-24-47-183 2z" class="cls-2"/>
      <path d="m511 188 11 35 155 103-78-150-88 12z" class="cls-4"/>
      <path d="M347 158 63 110l-2 4 291 69-5-25" class="cls-2"/>
      <path d="m343 84 25-13 21 21-12-2-10-9-24 8v-5z" class="cls-1"/>
    </g>
    <path d="M2531 688v-37h-122v-27l120-100h36v100h38v27h-38v37h-34Zm0-64v-71l-88 71h88Z" class="cls-3"/>
  </g>
</svg>