<svg id="Layer_1" data-name="Layer 1" xmlns="http://www.w3.org/2000/svg" viewBox="0 0 1887 483">
	<defs>
		<style>
			.rope,
			.fill-blue,
			.fill-orange,
			.fill-white{
			stroke-width:0
			}
			.stroke-blue{
			stroke: rgb(0, 172, 210);
			stroke: color(display-p3 0.003 0.67737 0.8694);
			stroke: oklch(68.97% 0.1672 220.8);
			stroke-miterlimit:10;
			stroke-width:2px
			}
			.fill-white,
			.stroke-blue{
			fill:#fff;
			}
			.text {
			fill: #000;
			}
			.fill-orange{
			fill: rgb(247, 136, 0);
			fill: color(display-p3 0.94337 0.53214 0);
			fill: oklch(73.36% 0.2 58.42);
			}

			.rope,
			.fill-blue {
			fill: rgb(0, 172, 210);
			fill: color(display-p3 0.003 0.67737 0.8694);
			fill: oklch(68.97% 0.1672 220.8);
			}
		</style>
	</defs>
	<g class="rope">
		<path
			d="M283.58 368.45c4.9 15.2 8.58 33.17 13.97 47.23.9 2.34 2.46 4.24 4.45 5.76 1 .76 2.1 1.42 3.29 1.99.59.28 1.21.55 1.84.78.65.24 1.13.39 1.72.56 2.3.63 4.86.85 7.61 1 1.37.05 2.77.03 4.19-.06 1.42-.07 2.86-.17 4.29-.36-.26-1.66-.51-3.31-.76-4.96l-.81-4.92c-.29-1.65-.58-3.31-.91-4.97-.34-1.63-.7-3.27-1.09-4.93-1.68-6.69-3.42-13.13-5.54-19.52-2.17-6.56-5.81-11.14-11.14-14.04-5.32-2.87-12.33-4.06-21.1-3.55ZM194.51 368.63c-1.57-2.97-3.25-6.56-5.15-10.21-1.9-3.66-3.97-7.56-6.2-11.44-2.23-3.87-4.66-7.54-7.17-11.02a91.264 91.264 0 0 0-3.84-4.92 57.52 57.52 0 0 0-3.95-4.1 34.336 34.336 0 0 0-6.51-4.87c-.61-.34-1.19-.68-1.85-.98-.73-.3-1.47-.58-2.23-.84-1.52-.51-3.09-.99-4.71-1.29-6.46-1.27-13.58-.61-19.99 2.27 1.75 3.37 3.97 6.84 6.37 10.11 1.2 1.62 2.45 3.31 3.73 4.94 1.27 1.65 2.58 3.17 3.88 4.81 1.3 1.61 2.6 3.18 3.9 4.68 1.28 1.58 2.56 3.1 3.81 4.54 2.58 2.98 5.4 5.84 8.19 8.28 1.4 1.25 2.83 2.34 4.22 3.47 1.4 1.11 2.8 2.13 4.2 3.04 2.79 1.82 5.59 3.16 8.25 4.2 2.68.99 5.32 1.46 7.85 1.34 2.51-.04 4.92-.68 7.2-2.02ZM201.18 368.91c1.61 2.58 3.43 4.65 5.4 6.26 1.98 1.59 4.06 2.89 6.26 3.66 4.42 1.52 9.18 1.62 13.82.08-1.16-3.42-2.31-6.81-3.46-10.19-1.19-3.43-2.47-6.74-3.82-10.15-2.68-6.84-5.83-13.39-9.6-20-1.76-2.98-3.78-5.37-6.04-7.27-1.13-.95-2.32-1.76-3.58-2.45-1.26-.69-2.59-1.17-3.98-1.57-2.79-.78-5.83-1.07-9.12-.89-3.31.27-6.89 1.05-10.72 2.26 2.46 3.42 4.75 6.82 6.93 10.2 2.17 3.44 4.22 6.91 6.22 10.28.99 1.67 1.98 3.35 2.97 5.02.96 1.68 1.93 3.36 2.89 5.05.96 1.66 1.93 3.3 2.9 4.91.97 1.59 1.94 3.2 2.93 4.82ZM344.1 401.88c-.91-2.94-1.95-5.43-3.25-7.52-1.36-2.08-2.99-3.75-4.97-5.06-2.01-1.3-4.5-2.19-7.39-2.76-.76-.16-1.38-.2-2.1-.26-.7-.05-1.44-.08-2.21-.09-1.53-.02-3.2.04-5.02.18.97 3.19 1.92 6.32 2.86 9.43 1.01 3.19 2.03 6.41 2.91 9.52.87 3.15 1.65 6.29 2.44 9.35.77 3.09 1.53 6.17 2.33 9.17M248.89 348.53c6.61 17.56 10.41 33.59 15.64 49.15 1.26 3.6 3.62 6.45 6.79 8.35 3.19 1.91 7.1 2.81 11.46 2.47 1.96-.11 5.45-3.76 5.21-5.02-2.65-12.07-5.08-24.28-9.36-35.97-2.05-5.42-5.13-10-9.96-13.31-1.2-.83-2.49-1.59-3.89-2.26-1.42-.66-2.96-1.23-4.6-1.71a42.88 42.88 0 0 0-5.26-1.18c-1.87-.3-3.9-.44-6.02-.52ZM55.61 401.77c8.62-2.47 12.48-6.85 13.06-15.76-8.85-2.39-17.64-3.56-25.77-3.42-8.11.14-15.67 1.48-22.03 3.99-6.35 2.51-11.67 6.06-15.27 10.55-.46.55-.89 1.12-1.31 1.7a28.705 28.705 0 0 0-2.9 5.56c-.46 1.31-.81 2.66-1.06 4.03-.12.69-.22 1.38-.28 2.08-.05.71-.07 1.43-.06 2.15 9.39-2.88 19.37-4.47 28.9-5.88 9.57-1.4 18.66-2.61 26.71-4.98ZM214.4 336.46c1.37 2.76 2.66 5.47 3.88 8.14 1.23 2.66 2.34 5.4 3.44 8.05l3.18 7.92c.99 2.65 1.99 5.31 3 8.01.77 2.05 2.07 4.67 3.41 7.34 1.34 2.66 2.75 5.23 3.85 7.02 1.44 2.45 2.81 4.51 4.29 6.06 1.47 1.56 3.02 2.64 4.76 3.33 3.48 1.45 7.72 1.14 13.55-.33-1.08-5.64-2.52-11.93-4.11-18.34-1.64-6.31-3.41-12.73-5.14-18.29-1.01-3.34-2.68-6.41-4.85-9.11-2.21-2.65-4.95-4.89-8.02-6.67-6.19-3.45-13.81-4.83-21.24-3.14ZM128.52 326.79c-5.81-4.18-12.59-5.65-18.77-4.43-6.18 1.21-11.83 4.81-15.69 10.34 3.12 2.33 6.34 4.56 9.59 6.83 1.59 1.07 3.2 2.17 4.85 3.28 1.62 1.1 3.22 2.18 4.81 3.21 6.36 4.22 12.33 8.03 17.64 11.16 5.33 3.12 9.97 5.41 14.29 6.23 1.08.24 2.14.36 3.2.36s2.1-.01 3.16-.22c.53-.1 1.06-.23 1.59-.39.61-.13 1.25-.28 1.88-.47 1.26-.38 2.51-.9 3.76-1.57-1.23-1.19-2.44-2.52-3.63-3.94l-.88-1.08-.79-1.06-1.61-2.22-1.66-2.34c-.58-.78-1.16-1.55-1.73-2.33-1.17-1.56-2.38-3.25-3.64-4.79-5.01-6.39-10.76-12.44-16.36-16.57ZM95.9 369.63c-6.99-3.17-14.18-5.85-21.69-7.98-7.46-2.05-15.23-3.49-23.31-3.84-14.74-.72-22.42 7.48-21.58 22.07 15.2-1.78 29.69-1.32 43.33 1.23 1.32.25 2.57.42 3.76.51 1.21.11 2.35.14 3.44.07 2.16-.17 4.16-.6 5.97-1.51 3.69-1.73 6.71-5.19 10.08-10.55ZM55.77 352.99c8.96 1.2 17.96 3.45 26.37 6.17 8.42 2.73 16.29 5.95 23.3 9.2.91.37 2.04.52 3.26.46 1.23-.05 2.54-.36 3.91-.66 2.71-.7 5.55-1.7 7.77-2.53.73-.36 1.04-5.97-.09-6.95-1.09-1.01-2.27-2.08-3.51-3.13-1.24-1.03-2.54-2.07-3.92-3.12-2.76-2.14-5.72-4.11-8.88-6.08-3.13-1.9-6.43-3.7-9.73-5.28-3.29-1.55-6.64-2.99-9.8-4.08-2.63-.93-5.43-1.28-8.19-.97-2.8.25-5.54 1.16-8.17 2.56-5.2 2.86-9.77 7.84-12.34 14.42ZM27.54 428.6c10.65 2.01 17.43-7.08 20.29-10.12 2.96-2.99 4.3-6.67 3.84-11.07-6.26.92-11.5 1.91-16.14 2.73-4.58.87-8.59 1.57-12.18 2.28-1.8.35-3.57.67-5.25 1.04-1.68.37-3.33.75-4.99 1.17-3.36.83-6.59 1.94-10.31 3.53 0 0 18.1 9.19 24.73 10.44ZM546.42 421.36c-3.65-.43-7.72-1.09-12.06-1.91-2.16-.41-4.36-.84-6.58-1.3-2.21-.48-4.46-.96-6.71-1.45-4.43-.94-8.88-2.05-12.95-2.9-4.12-.96-7.9-1.69-11.23-2.19-2.47-.41-4.89-.51-7.26-.41-2.39.05-4.67.45-6.88 1.08-2.23.56-4.31 1.56-6.33 2.77-1.01.6-1.99 1.29-2.94 2.09-.95.79-1.86 1.73-2.78 2.66 2.29 3.02 5 5.68 8.14 8.1 1.57 1.21 3.24 2.35 5 3.41 1.77 1.07 3.57 1.95 5.48 2.81 1.9.84 3.88 1.6 5.91 2.26 2.02.63 4.07 1.13 6.16 1.56 4.22.9 8.44 1.21 12.65 1.21 8.31-.11 16.26-1.9 22.03-5.05 5.86-3.12 9.63-7.47 10.35-12.76ZM550.97 415.99c6.51.1 11.84-1.69 15.76-4.62 1.95-1.45 3.55-3.17 4.81-5.14 1.24-1.93 2.12-4.07 2.64-6.38-14.49-3.16-29.49-5.99-44.36-7.85-3.43-.41-6.46-.42-9.15.02-2.7.47-5.05 1.32-7.15 2.66-2.1 1.38-3.94 3.08-5.62 5.38-.84 1.16-1.65 2.34-2.43 3.72-.78 1.35-1.53 2.89-2.29 4.46 15.53 4.13 31.69 7.32 47.8 7.76ZM363.2 453.49c.8 1.05 1.64 2.03 2.51 2.93.87.9 1.76 1.72 2.77 2.42 1.99 1.41 4.03 2.54 6.27 3.24 2.29.67 4.65 1 7.06.95 2.48-.12 5.05-.66 7.57-1.56-1.09-2.26-2.11-4.44-3.05-6.56-.48-1.04-.91-2.12-1.32-3.19-.4-1.05-.8-2.09-1.2-3.13-.77-2.07-1.53-3.97-2.17-5.96-.64-1.91-1.27-3.8-1.89-5.66-.61-1.78-1.17-3.59-1.73-5.3s-1.12-3.35-1.68-4.9c-1.11-3.24-2.24-6.09-3.49-8.78-2.48-5.35-5.38-9.64-9.16-12.79-.94-.78-1.92-1.48-2.95-2.1-1.05-.63-2.16-1.18-3.31-1.64-1.15-.46-2.34-.83-3.59-1.11-1.28-.29-2.6-.49-3.97-.58 1.23 8.93 1.65 18.31 3.2 27.53 1.55 9.19 4.19 18.24 10.12 26.2ZM530.37 387.29c12.09 2.12 23.54 4.14 35.16 6.28 4.46.77 12.25 1.26 16.51 1.4 2.91.16 5.33.06 7.38-.21 2.05-.28 3.71-.97 5.13-1.86 1.42-.91 2.56-2.26 3.58-3.96 1.03-1.67 1.91-3.82 2.8-6.47-2.52-1.28-5.3-2.56-8.28-3.83-2.98-1.27-6.09-2.37-9.32-3.49-6.42-2.16-13.13-3.95-19.05-5.37-7.13-1.78-14.57-.63-20.71 2.56-6.14 3.21-10.85 8.36-13.19 14.93Z" />
		<path
			d="M468.96 425.85c-11.11-6.6-19.49-4.76-27.37 3.98 2.1 3.06 4.44 5.81 7.08 8.52 2.64 2.68 5.56 5.27 8.65 7.41a74.59 74.59 0 0 0 4.81 3.11c1.66.98 3.35 1.89 5.07 2.64 1.72.77 3.47 1.47 5.25 2.09 1.78.62 3.58 1.17 5.35 1.53 7.15 1.61 14.39 1.59 20.49-.34 3.05-.96 5.87-2.3 8.19-4.2a22.37 22.37 0 0 0 3.22-3.08c.97-1.12 1.77-2.41 2.47-3.77-7.74-.3-16.14-3.12-23.64-6.7-3.76-1.77-7.37-3.86-10.63-5.75-1.63-.93-3.21-1.92-4.71-2.86-1.5-.93-2.91-1.8-4.24-2.58ZM431.61 465.51c-1.59-1.35-3.13-2.7-4.62-4.06-1.49-1.38-2.93-2.82-4.33-4.23-2.8-2.85-5.45-5.59-8-8.45-5.07-5.81-8.81-11.66-11.86-17.65-.69-1.36-1.34-2.54-1.99-3.57-.66-1.11-1.32-2.05-2-2.83-.69-.8-1.38-1.35-2.15-1.9-.77-.55-1.58-.94-2.45-1.19-1.74-.43-3.78-.55-6.18-.11-2.4.5-5.2 1.22-8.45 2.49.88 3.19 1.84 6.5 2.96 9.64.56 1.6 1.15 3.21 1.77 4.84.64 1.58 1.33 3.15 2.05 4.75.74 1.58 1.47 3.26 2.33 4.79.85 1.56 1.74 3.13 2.69 4.72l1.46 2.39 1.61 2.28c1.1 1.53 2.26 3.07 3.48 4.62.93 1.24 2.01 2.23 3.14 3.18 1.14.94 2.35 1.77 3.63 2.5.64.36 1.3.72 1.99 1 .69.26 1.4.5 2.12.7 1.45.41 2.97.71 4.54.88.39.04.79.08 1.19.11.41.03.82.05 1.13.04.68-.02 1.38-.06 2.08-.13 1.41-.15 2.86-.42 4.36-.81s3.03-.9 4.61-1.54c1.59-.7 3.21-1.53 4.87-2.49ZM407.75 431.01c.43.83.89 1.67 1.36 2.53.48.86.98 1.72 1.51 2.5 1.06 1.61 2.22 3.26 3.49 4.92 1.23 1.71 2.76 3.22 4.23 4.8 1.49 1.57 3.01 3.14 4.58 4.7 3.13 3.18 6.42 6.04 9.89 8.86 1.73 1.39 3.5 2.81 5.31 4.09 1.81 1.26 3.66 2.48 5.55 3.65 1 .59 2.39.93 4.01 1.09 1.62.18 3.47.01 5.39-.2 1.92-.23 3.91-.58 5.82-.98 1.9-.47 3.71-1.01 5.28-1.51 1.13-.45 1.83-6.14.41-7.06-2.64-1.94-5.42-4.04-8.2-6.23-2.8-2.26-5.62-4.67-8.34-7.04-1.36-1.2-2.69-2.34-4.01-3.59l-3.85-3.64c-2.5-2.41-4.81-4.6-6.96-6.78-1.78-1.79-3.72-3.11-5.78-3.94-1.03-.43-2.08-.68-3.19-.92-1.1-.23-2.23-.34-3.38-.34s-2.33.14-3.53.39c-.6.12-1.2.28-1.81.47-.5.15-.94.32-1.43.52-.96.41-1.96.95-3.01 1.62-.53.36-1.07.63-1.63.98-.56.34-1.13.7-1.72 1.1ZM329.72 423.83c.68 2.57 1.41 5.13 2.19 7.64.94 2.9 2.21 5.59 3.67 7.93 1.53 2.37 3.29 4.42 5.28 6.07 2.06 1.66 4.24 2.92 6.65 3.69 2.44.77 4.96 1.04 7.57.72-1.36-3.19-2.43-6.11-3.35-8.78-.86-2.69-1.55-5.14-2.13-7.42-1.13-4.55-1.78-8.41-2.28-11.92-.99-7.03-1.35-12.7-3.21-19.87M879.11 432.9c-3.08-2.17-6.36-4.74-9.66-7.59a228.633 228.633 0 0 1-7.38-6.81c-.79-.8-1.59-1.61-2.39-2.41-1.53-1.58-3.06-3.17-4.58-4.74-1.42-1.57-2.84-3.14-4.23-4.68-1.35-1.48-2.64-2.89-3.88-4.29a83.037 83.037 0 0 0-3.57-3.74c-1.67-1.66-3.41-3.27-5.27-4.49-.93-.6-1.87-1.23-2.84-1.76-.97-.53-1.97-.99-2.99-1.36-1.03-.37-2.06-.76-3.15-1.01-1.08-.27-2.2-.39-3.35-.53-2.29-.3-4.76-.08-7.41.27-.1 1.84-.07 3.71.08 5.6.16 1.87.45 3.73.87 5.61.42 1.88.97 3.77 1.64 5.65.68 1.86 1.51 3.66 2.45 5.47 1.87 3.66 4.3 7 7.12 10.18 1.4 1.62 2.94 3 4.54 4.41 1.6 1.38 3.28 2.75 5.03 3.87 1.75 1.15 3.55 2.23 5.39 3.2 1.84.97 3.75 1.71 5.65 2.41.95.34 1.9.66 2.86.95.95.28 1.88.48 2.81.68 1.86.38 3.7.65 5.48.79 3.52.17 6.84-.15 9.7-1.09 2.84-.99 5.26-2.49 7.09-4.59ZM886.23 430.34c2.96 1.53 5.95 2.43 8.92 2.89 2.94.41 5.79.26 8.48-.27 5.33-1.15 9.9-4.01 12.95-8.02-13.21-7.81-25.22-16.76-36.64-25.45-5.26-4.01-9.81-5.88-14.43-5.81-1.16.01-2.32.16-3.52.44-1.2.3-2.38.59-3.64 1.1-1.24.47-2.56 1.14-3.89 1.81-1.33.67-2.74 1.46-4.23 2.38 9.51 11.91 21.44 23.13 36 30.93ZM1014.48 356.29c-11.81-4.33-18.48-2.8-27.21 8.61 12.71 5.2 24.87 10.87 37.06 15.53M913.81 387.89c15.6 9.61 30.66 18.02 46.73 24.48 7.46 2.89 15.93.44 21.01-6.45 1.19-1.52.5-6.43-.66-7.06-11.41-5.77-22.78-11.83-34.35-16.71-2.7-1.14-5.37-1.95-8.04-2.38-2.67-.45-5.33-.51-8.01-.09-5.37.76-10.8 3.37-16.68 8.21ZM882.6 395.65c2.24 1.86 4.49 3.69 6.77 5.5 2.28 1.76 4.57 3.48 6.91 5.19 2.34 1.73 4.7 3.34 7.12 4.96 2.42 1.61 4.91 3.24 7.44 4.75 1.95 1.16 4.8 2.52 7.75 3.73 2.92 1.17 5.94 2.21 8.17 2.85 11.99 3.65 18.32 1.19 24.47-9.13-10.4-6.02-23.58-13.65-33.25-20.08-2.9-1.97-5.98-3.33-9.11-4.18-3.12-.91-6.3-1.14-9.38-1-1.54.09-3.07.31-4.56.69-1.49.36-2.95.81-4.37 1.43-2.85 1.28-5.51 2.95-7.95 5.3Z" />
		<path
			d="M813.11 393.47c-1.05-3.02-2.34-5.41-3.86-7.41-1.53-2.03-3.3-3.46-5.35-4.61-1.02-.55-2.11-.97-3.26-1.3-1.16-.36-2.38-.59-3.66-.72-2.56-.22-5.41-.15-8.44.43-.13 3.61 0 7.32.39 11.02.41 3.66 1.06 7.4 2.05 10.97.99 3.58 2.26 7.12 3.9 10.4 1.59 3.34 3.58 6.4 5.81 9.24 4.5 5.58 10.22 10.01 16.44 12.16 1.55.54 3.11 1.01 4.69 1.26 1.58.24 3.17.36 4.74.34 3.13.02 6.24-.78 9.13-2.09a44.737 44.737 0 0 1-4.43-3.97c-1.4-1.43-2.7-3.07-3.93-4.71-2.47-3.24-4.55-6.94-6.35-10.57-.9-1.79-1.71-3.66-2.45-5.5-.75-1.83-1.43-3.62-2.07-5.34-1.26-3.51-2.31-6.82-3.33-9.6ZM1308.44 393.33c5.61 4.94 12.4 10.21 19.99 14.47 7.57 4.32 15.92 7.8 23.91 9.93 5.29 1.36 11.03-.42 15.64-3.93 4.65-3.49 8.35-8.59 10.6-13.89-13.5-4.31-26.82-9.31-39.16-14.33-6.31-2.58-11.41-3.17-16.14-1.93-4.76 1.26-9.18 4.54-14.83 9.66ZM1231.09 412.9c3.41 5.33 8.06 8.79 13.2 10.39 2.53.82 5.22 1.15 7.85 1.05 2.6-.08 5.27-.66 7.68-1.62-.96-1.66-1.88-3.31-2.77-4.96-.88-1.66-1.71-3.34-2.53-5-1.64-3.31-3.15-6.67-4.64-10-2.97-6.66-5.8-13.31-8.92-19.82-5.73-12.03-14.79-15.41-30.2-12.74 6.85 14.72 12.06 29.38 20.33 42.71ZM1276.27 389.16c3.89 7.69 7.9 14.87 13.79 21.28 5.69 6.52 12.21 12.35 19.97 17.34 1.81 1.1 3.83 1.94 5.97 2.36 2.13.39 4.38.46 6.62.2 2.22-.34 4.45-1 6.54-1.98 2.07-1.06 4.01-2.41 5.71-4.05 1.56-1.52 1.36-6.5.17-7.19-11.7-6.34-21.74-14.24-30.51-21.97-2.07-1.86-4.08-3.3-6.17-4.54-2.1-1.28-4.2-2.03-6.52-2.63a18.17 18.17 0 0 0-3.59-.47c-1.06-.1-2.1-.09-3.25.07-1.21.08-2.55.24-3.95.55-1.46.25-3.07.56-4.77 1.03ZM1245.39 380.86c4.47 10.89 8.48 21.1 14.06 31.39 2.13 3.91 7.26 10.22 11.05 13.34 1.23 1.09 2.37 2.12 3.64 2.92 1.25.82 2.48 1.52 3.71 2.11 1.19.6 2.53.99 3.81 1.29 1.27.29 2.61.48 3.81.5 2.3-.02 4.6-.5 6.94-1.45 2.36-.98 4.79-2.54 7.3-4.5-2.17-2.23-4.43-4.58-6.63-7.03-2.2-2.53-4.36-5.14-6.41-7.73-4.13-5.37-7.22-10.83-9.68-15.85-2.86-5.92-7.16-10.41-12.62-13.08-5.43-2.65-12.05-3.51-18.99-1.89ZM1024.33 380.44c2.57.99 5.15 1.92 7.73 2.82 2.99.99 5.89 1.64 8.61 1.97 2.74.29 5.28.31 7.6-.08 2.32-.39 4.36-1.07 6.16-2.21 1.73-1.04 3.28-2.61 4.42-4.46-1.35-.77-2.73-1.39-4.04-2.05-1.32-.64-2.58-1.29-3.82-1.87-2.48-1.15-4.76-2.27-6.89-3.3-4.26-2.04-7.84-3.91-11.05-5.62-3.23-1.74-6.11-3.36-9.06-4.9-2.96-1.55-5.98-3.02-9.51-4.43M1663.05 391.02c1.22 1.49 2.47 3 3.72 4.53 1.29 1.55 2.62 3 4.02 4.54 1.4 1.51 2.85 3.1 4.35 4.59 1.5 1.47 3.06 2.93 4.68 4.39l2.46 2.17c.83.72 1.67 1.36 2.53 2.03 1.71 1.33 3.47 2.63 5.27 3.88 1.8 1.3 3.62 2.36 5.48 3.44 1.86 1.06 3.74 2.07 5.64 3 2.53 1.17 5.36 1.48 8.29 1.26.73-.06 1.49-.16 2.2-.28.57-.1 1.13-.23 1.7-.4a21.9 21.9 0 0 0 3.44-1.33c4.63-2.21 9.31-6.11 12.95-10.59-5.81-3.86-11.45-7.88-17.27-11.69-2.91-1.91-5.86-3.76-8.95-5.5-.8-.42-1.49-.9-2.19-1.36-.69-.46-1.39-.92-2.09-1.38-1.34-.89-2.69-1.8-4.06-2.71-10.93-7.53-18.54-6.66-32.16 1.4ZM1725.55 382.73c-5.46-2.9-9.88-4.22-14.31-3.49-2.22.36-4.43 1.23-6.8 2.69-1.17.72-2.4 1.6-3.68 2.64-.3.25-.67.54-.92.79l-.73.76c-.5.53-1.01 1.09-1.54 1.69 1.31.9 2.63 1.8 4.02 2.69 1.55.81 3.09 1.62 4.58 2.46 2.99 1.67 5.89 3.39 8.76 5.09 5.74 3.41 11.37 6.78 17.17 9.83M1628.83 382.24c1.02 2 2.02 3.96 3.01 5.91 1.01 1.95 2.04 3.82 3.09 5.73 1.05 1.88 2.12 3.8 3.22 5.63 1.1 1.82 2.24 3.64 3.4 5.44 2.32 3.66 4.84 7.03 7.53 10.47 1.34 1.74 2.77 3.33 4.24 4.96 1.48 1.62 3.01 3.23 4.61 4.81 1.52 1.39 3.29 2.5 5.23 3.32.97.41 1.98.75 3.02 1.01 1.05.23 2.13.36 3.22.42 2.19.1 4.43-.03 6.65-.62 2.22-.62 4.38-1.56 6.38-2.82 1.86-1.07 2.77-6.07 1.75-6.95-9.99-8.64-17.99-18.37-25.52-27.47a39.15 39.15 0 0 0-2.7-2.97 39.8 39.8 0 0 0-2.85-2.52c-.98-.78-2-1.47-3.07-2.07-1.06-.59-2.17-1.07-3.35-1.54-2.36-.92-4.93-1.31-7.88-1.51-1.47-.07-3.03-.03-4.69.12-1.67.1-3.43.31-5.31.64ZM1597.14 373.43c4.55 10.87 8.68 21.08 14.02 31.44 2.06 3.92 6.89 10.28 10.18 13.52 1.07 1.14 2.1 2.18 3.14 3.06 1.05.87 2.09 1.63 3.13 2.26 2.08 1.27 4.13 2.1 6.32 2.36 2.17.28 4.4.12 6.78-.51 2.41-.69 4.95-1.82 7.68-3.41-1.7-2.52-3.47-5.19-5.23-7.92-1.74-2.77-3.46-5.68-5.11-8.53-1.66-2.83-3.2-5.8-4.66-8.59l-2.09-4.12-1.89-3.99c-1.42-3.1-3.26-5.74-5.46-8.07a25.05 25.05 0 0 0-3.54-3.08c-1.26-.92-2.6-1.76-4.01-2.44-5.6-2.73-12.32-3.66-19.26-1.97ZM1351.7 372.75c-3.76 1.58-6.75 4.95-10.21 10.64 12.12 4.9 25.18 8.96 38.06 11.72l-13.52-22.45c-6.1-1.33-10.57-1.52-14.34.09ZM1397.65 383.02c-4.54-1.41-8.36-2.66-11.84-3.89-6.93-2.42-12.47-4.64-19.77-6.47l13.52 22.45c2.73.58 5.46 1.12 8.16 1.6 6.28 1.04 11.93.79 16.33-.6 2.21-.74 4.11-1.7 5.69-3.09 1.58-1.34 2.82-3.03 3.71-5.12-6.03-1.93-11.27-3.49-15.8-4.88ZM1837.77 186.1c2.06-3.29 4.17-6.72 6.37-10.31 2.14-3.57 4.24-7.24 6.31-11 1.99-3.73 3.9-7.54 5.65-11.33 1.66-3.77 3.19-7.54 4.43-11.21.77-2.44.75-4.97.14-7.46-.6-2.5-1.94-4.91-3.63-7.2-3.45-4.55-8.69-8.43-14.29-10.85-4.54 13.2-10.64 25.33-15.88 37.5-2.68 6.21-3.11 11.61-1.3 16.73.96 2.54 2.33 5.07 4.42 7.54 2.02 2.5 4.61 5 7.78 7.59ZM1837.69 115.61c-2.83 12.69-7.93 24.64-13.18 36.48-2.92-1.87-5.3-3.52-7.07-5.2-.89-.84-1.61-1.68-2.24-2.53-.64-.84-1.14-1.7-1.51-2.6-.31-.77-.54-1.57-.69-2.4-1.05-5.69 2.01-11.37 7.25-14.23l17.45-9.53ZM1842.19 220.81c12.19-13.13 22.78-26.41 30.76-41.66 3.66-7.1 1.39-15.93-5.71-21.41-1.6-1.27-6.75-.79-7.42.34-6.25 11.03-13.24 21.47-19.46 31.81-1.4 2.4-2.55 4.8-3.31 7.21-.74 2.41-1.08 4.84-1.05 7.34.07 2.5.62 5.06 1.6 7.77.5 1.35 1.16 2.73 1.93 4.16.74 1.43 1.62 2.91 2.67 4.44ZM1777.15 404.74c10.13 1.8 18.1-1.53 22.92-10.3-8.67-4.56-16.36-8.93-23.44-12.57-7.07-3.65-13.51-6.57-19.43-8.43-11.82-3.73-21.68-3.18-29.41 3.84 14.65 10.67 30.26 24.1 49.36 27.46Z" />
		<path
			d="M1732.09 407.89c2.46 1.29 4.93 2.52 7.46 3.67 5.86 2.6 11.79 3.69 17.02 3.08 5.23-.61 9.75-2.9 12.68-6.94-12.98-5.05-20.49-9.58-26.59-13.61-6.07-4.05-10.61-7.66-17.12-11.36M599.69 353.82c-.9 1.35-1.92 2.57-3.04 3.66-5.86 5.7-15.57 8.47-29.69 8.47h-8.66s-.01.02-.02.03c4.9.87 9.49 1.77 14.06 2.87 2.27.54 4.47 1.09 6.65 1.67 2.2.61 4.35 1.23 6.45 1.87l3.12.96 3.08 1.05c2.03.7 4.02 1.41 5.96 2.11 1.96.77 3.88 1.54 5.76 2.31.92.38 1.85.77 2.78 1.15.92.4 1.84.83 2.75 1.25 1.68.75 3.33 1.2 4.92 1.34 1.61.22 3.18.16 4.66-.21 1.47-.42 2.93-.94 4.3-1.85 1.37-.89 2.64-2.13 3.88-3.51 1.11-1.25 1.18-6.17.25-7-7.72-6.43-16.81-12.28-27.21-16.17ZM590.32 351.07c-.94.9-2.08 1.71-3.42 2.4 1.34-.7 2.48-1.5 3.42-2.4ZM653.67 365.95c-12.47 0-20.75-2.29-26.06-7.2-5.22-4.82-7.86-12.46-8.07-23.29-5.17.74-10.41 2.98-15.26 6.69-.6 2.91-1.43 5.52-2.48 7.84.68.28 1.36.56 2.04.85 2.05.88 4.08 1.81 6.06 2.77 1.98.95 3.97 2.09 5.87 3.16 1.92 1.11 3.76 2.16 5.58 3.36 1.82 1.2 3.58 2.41 5.27 3.6.83.59 1.66 1.19 2.49 1.78.82.61 1.63 1.25 2.42 1.86 3.05 2.42 6.04 4.79 8.92 7.08 7.77 5.72 18.33 1.47 27.23-5.19-.86-1.1-1.73-2.21-2.61-3.31h-11.41ZM696.2 372.2c-.74-1.12-1.45-2.19-2.12-3.21-.7-1.02-1.37-1.99-2-2.91-.03-.04-.06-.08-.09-.13h-20.75c1.73 1.8 3.41 3.69 5.09 5.44 8.27 8.53 16.38 12.2 24.55 7.99-.82-1.29-1.61-2.59-2.4-3.76-.8-1.2-1.56-2.33-2.28-3.41ZM717.72 365.95h-20.46c.97 1.54 1.94 3.06 2.93 4.49 2.44 3.76 4.95 7.12 7.64 10.31 5.7 6.7 11.63 8.51 20.61 5.54-1.2-7.33-3-14.26-5.44-20.49-1.67.1-3.42.16-5.27.16ZM746.52 355.9a20.68 20.68 0 0 1-2.54 2.82c-3.9 3.57-9.36 5.75-16.82 6.69 3.19 7.43 5.72 14.91 7.82 22.47 1.42 5.11 3.69 8.86 7.46 11.41 3.76 2.54 9.03 3.89 16.32 4.05-3.42-15.35-5.13-29.88-10.72-44.1-.46-1.19-.97-2.3-1.51-3.33ZM786.09 406.28c-.69-3.43-1.39-6.91-2.02-10.43-1.27-7.01-2.39-13.95-3.59-19.95-.5-2.48-1.46-4.68-2.91-6.62-.92-1.25-2.04-2.35-3.32-3.34h-13.9v-4.75c-1.91-.12-3.91-.11-5.99.1 4.81 16.35 6.98 33.88 12.61 49.61.75 2.04 3.36 4.1 6.48 5.94 3.19 1.82 6.91 3.41 9.97 4.48 1.14.31 5.38-3.71 4.9-5.27-.75-3.09-1.53-6.36-2.24-9.77ZM975.33 365.05l-.52.89h-6.94c-.49.14-.98.28-1.46.45-5.65 2.03-10.87 6.37-16.01 12.89 14.69 6.7 31.79 15.23 46.35 20.35 9.77 3.32 20.09-4.86 25.92-14.6-12.47-6.23-24.81-12.82-37.88-17.87-3.3-1.27-6.44-1.97-9.47-2.11ZM1076.79 362.48l-.01-.01v3.48h-33.26c3.39 1.83 6.77 3.56 10.06 5.18 2.05.96 4.04 1.94 5.99 2.81 1.99.82 3.79 1.76 5.6 2.48.97.39 1.75.83 2.57 1.11.4.15.79.28 1.17.39.39.11.87.23 1.29.32 1.74.36 3.36.36 4.95.05 1.62-.23 3.19-.81 4.76-1.75.78-.49 1.58-1 2.39-1.6.81-.6 1.62-1.3 2.44-2.09-1.23-1.86-2.52-3.67-3.85-5.44-1.32-1.7-2.69-3.34-4.1-4.93ZM1035.3 356.95v-14.53c-2.04.04-4 .23-5.84.61a25.52 25.52 0 0 0-7.35 2.68c-2.22 1.26-4.23 2.88-6.02 4.87 6.31 3.38 12.74 7.15 19.21 10.82v-4.44ZM1105.76 358.07c-2.13-3.17-4.4-6.16-6.83-9.13-2.42-3.01-5.07-5.76-7.95-8.5-4.58-4.36-9.39-6.6-14.21-6.72v22.77s.09.08.13.12c1.32 1.19 2.6 2.38 3.85 3.58 1.25 1.25 2.46 2.51 3.65 3.77 1.18 1.26 2.33 2.51 3.45 3.79 1.12 1.32 2.22 2.63 3.28 3.95 6.62 8.27 13.52 10.2 26.49 5.83-1.9-3.38-3.79-6.64-5.75-9.89-1.96-3.29-3.98-6.44-6.11-9.57ZM1143.21 373.19c-1.27-3.18-2.65-6.51-4.14-9.75-.55-1.21-1.12-2.42-1.69-3.63l-11.36-18.77c-2.6-2.26-5.86-3.8-9.59-4.43-2.76-.54-5.86-.43-8.98.06-1.56.24-3.17.67-4.77 1.22-1.61.55-3.21 1.22-4.79 2.01 11.6 13.29 20.44 28.99 28.95 42.31 1.15 1.67 3.81 3.02 6.84 3.96 3.04.99 6.49 1.68 9.22 2.15.99.08 4.35-4.57 3.76-6-1.02-2.88-2.18-5.96-3.45-9.13ZM1173.23 367.29c-.88-2.3-1.76-4.49-2.65-6.54l-.41.72-2.6 4.49h-21.39c.31.67.62 1.35.93 2.01 3.21 6.74 6.89 12.98 10.98 18.13 8.16 10.29 18.12 16.34 29.41 13.06-4.11-5.66-7.26-13.18-10.12-20.73-1.43-3.83-2.82-7.56-4.14-11.12ZM1202.44 365.95h-17.08l5.54-9.34c-4.68-2.18-10.09-3.26-16.01-2.7.12 7.47 2.05 15.4 5.11 22.91 3.05 7.53 7.22 14.66 12.01 20.63 4.78 5.96 10.22 10.75 15.76 13.48 5.54 2.74 11.18 3.42 16.18 1.15-6.15-12.66-12.51-33.3-20.54-44.79-.31-.46-.64-.9-.97-1.34ZM1367.25 365.95c-.2.29-.41.56-.59.86 8.67 3.16 17.92 6.84 26.96 10.14 9.07 3.29 17.89 6.2 26.11 7.78 8.78 1.72 14-.27 18.92-7.72-4.34-4.32-9.01-8-13.83-11.05h-57.56ZM1456.67 365.95h-23.98c1.24.79 2.46 1.6 3.66 2.45 1.43 1 2.81 1.98 4.17 3.03 1.36 1.07 2.69 2.14 3.98 3.22 1.99 1.65 3.93 3.05 5.85 3.97 1.91.88 3.86 1.48 5.89 1.6 2.03.06 4.17-.13 6.51-.86 2.33-.79 4.92-1.8 7.83-3.37-2.54-3.41-5.16-6.77-7.92-10.03h-5.98ZM1494.76 368.76c-.47-.93-.95-1.87-1.45-2.81h-24.26l3.34 4c2.61 3.27 5.09 6.43 7.47 9.46 1.29 1.61 3.9 2.52 6.87 3.17 2.97.72 6.29.98 8.93 1.29.94 0 3.86-4.92 3.2-6.29-1.2-2.74-2.56-5.79-4.09-8.82ZM1466.06 356.95v-20.99c-.13-.02-.26-.03-.39-.05v26.11c.13.14.26.28.39.43v-5.5ZM1498.31 339.89v17.06-17.06zM1528.92 371.96c-1.56-3.72-3.1-7.43-4.64-10.95-1.54-3.52-3.13-6.75-4.74-9.59a23.945 23.945 0 0 0-6.12-7.15c-1.86-1.49-3.93-2.57-6.11-3.31v24.99h-7.54c1.38 2.26 2.79 4.43 4.23 6.51 2 2.95 4.07 5.61 6.2 8.07 8.49 9.78 18.2 15.39 29.32 11.84-2.09-2.79-3.95-5.99-5.69-9.5-1.73-3.48-3.35-7.17-4.91-10.91ZM1557.66 365.95l-2.57-2.32-16.68-15.08c-4.04-1.2-8.49-1.62-13.17-.99.29 3.73 1.02 7.58 2.09 11.4 1.08 3.83 2.5 7.6 4.15 11.33 1.66 3.72 3.57 7.29 5.67 10.73 2.1 3.4 4.38 6.62 6.81 9.56 4.84 5.84 10.29 10.55 15.81 13.2 5.53 2.67 11.16 3.29 16.12.99-5.26-10.7-10.79-27.14-17.47-38.82h-.75ZM1585.11 365.95h-21.5c6.47 13.67 11.65 27.2 19.39 39.59 6.77 10.64 18.7 13.59 28.28 9.79-7.09-13.26-12.21-26.78-18.59-39.81-2.07-4.24-4.56-7.38-7.58-9.56ZM1834.3 373.16c-1.21.14-2.39.27-3.55.25-2.31.03-4.51-.05-6.63-.34a59.68 59.68 0 0 1-3.11-.44c-1.02-.19-2.03-.4-3.01-.62-1.96-.41-3.88-.98-5.73-1.52-7.43-2.27-14.14-5.19-20.82-7.94-3.3-1.41-6.16-2.21-8.71-2.39v5.79h-11.78c-1.45 1.86-2.82 4.14-4.15 6.91 6.28 3.25 12.64 6.39 19.2 9.35 6.57 2.95 13.33 5.7 20.58 8.04 5.63 1.81 11.13 1.78 16.53-.79 1.36-.69 2.69-1.46 4.02-2.44.67-.51 1.33-1.05 1.98-1.63.65-.57 1.29-1.18 1.94-1.9.64-.7 1.27-1.43 1.89-2.19.62-.78 1.24-1.68 1.82-2.56.29-.45.58-.9.86-1.37.28-.48.57-1.01.84-1.53s.54-1.05.8-1.58c.24-.52.57-1.12.64-1.55-.49 0-1.16.14-1.77.23l-1.84.24ZM1850.07 363.98l-21.17-16.87c-1.72.03-3.42.05-5.06.05-1.74 0-3.41 0-5.05-.04-1.64-.07-3.24-.13-4.79-.2-1.26-.05-2.45 0-3.58.16-.56.08-1.11.18-1.64.32-.29.1-.47.06-.66.04l-.54-.03c-.35-.01-.65 0-.96.04-.36.05-.7.12-1.01.22-.56.19-1.3.51-1.88.95-2.46 1.74-5.18 5.4-7.72 10.82 7.34 3.33 15.19 6.64 24.17 8.01l1.71.24 1.72.14c1.16.07 2.35.14 3.55.11 1.19-.04 2.42-.13 3.67-.26.66-.08 1.19-.1 1.76-.15l1.69-.14c4.5-.41 9.19-.98 13.56-2.06.76-.2 1.59-.62 2.44-1.17l-.21-.17ZM1818.66 338.95c.03.53.06 1.06.12 1.61.8.15 1.61.3 2.43.43l-2.55-2.03ZM1841.65 305.95v-15.39c-1.65 1.29-3.15 2.68-4.42 4.19-1.42 1.54-2.61 3.2-3.54 4.97l7.96 6.23ZM1886.47 267.97c-.57-2.8-1.63-5.31-3.59-7.35-.59.57-1.22 1.15-1.88 1.74v26.65c.44-.67.85-1.34 1.21-2.02 1.78-3.29 3.27-6.64 3.92-9.87.71-3.23.93-6.33.34-9.13ZM1885.13 229.89c-1.02-2.33-2.54-4.43-4.37-6.22-8.91 10.2-18.74 19.03-28.38 27.47h28.63V254c.15-.17.3-.34.45-.52 2.02-2.53 3.48-5.23 4.43-7.96.91-2.73 1.21-5.47 1.11-8.12-.1-2.65-.83-5.18-1.85-7.51ZM1841.65 277.26v-14.21c-.64 1.39-1.07 2.8-1.25 4.27-.38 2.26-.18 4.67.5 7.3.19.85.45 1.74.75 2.64ZM1841.04 242.84c.86 2.85 2.11 5.63 4.09 8.31h.12c2.26-1.79 4.49-3.6 6.7-5.43 2.18-1.86 4.32-3.74 6.46-5.67 1.06-.96 2.14-1.94 3.19-2.93 1.02-1 2.05-2 3.07-3.01 2.03-2.03 4.09-4.14 6.07-6.32 1.49-1.67 3.3-4.19 4.99-6.83 1.72-2.64 3.13-5.38 4.11-7.46 5.43-11.09 3.62-17.87-6.54-25.06-1.83 2.38-3.71 4.88-5.78 7.44-2.05 2.57-4.17 5.17-6.3 7.72s-4.37 5.06-6.49 7.43c-1.07 1.17-2.13 2.33-3.16 3.45-1.07 1.1-2.1 2.18-3.11 3.21-2.45 2.44-4.24 5.11-5.66 7.89-1.38 2.78-2.14 5.66-2.5 8.56-.16 1.45-.16 2.91 0 4.36.09 1.45.34 2.89.74 4.33Z" />
	</g>
	<g>
		<g id="Bird">
			<path class="fill-blue"
				d="m428.75 337.39-3.12 87.32-7.8-6.76-6.24 50.94-12.99-105s18.19-9.88 30.15-26.51Z" />
			<path class="fill-orange"
				d="m391.84 366.5 14.55 116.95-32.75-107.08-5.72 1.04-2.08-1.04s15.07-4.68 25.99-9.88Z" />
			<path class="fill-blue"
				d="m291.52 133.12-40.54-8.32-17.67-19.23-35.86-8.84-4.16-20.79-165.3-25.47c4.16-1.56 33.27-3.12 33.27-3.12l103.44-10.4 15.07 25.99h15.07l69.65 35.35 6.76 22.35 20.27 12.47Z" />
			<path d="m179.77 49.43 4.68 7.8h17.15l4.68-7.8-8.84-8.84-17.67 8.84Z"
				style="fill:#000;stroke-width:0" />
			<path class="fill-blue"
				d="m169.37 34.36 6.24 9.88L199 32.29l16.11 16.11-5.2 8.32 96.68-1.56 33.79 67.05s8.84-33.27-1.56-61.85v-5.72l-8.84-7.8 2.08-11.44-12.99-5.2 1.04-9.36S295.16 1.09 260.34.05c-34.83-1.04-76.93 12.99-90.96 34.31Z" />
			<path class="stroke-blue" d="m178.21 98.29 51.46 11.95 12.47 13.51-50.42 9.36-13.51-34.83Z" />
			<path class="fill-orange"
				d="m184.45 129.48-61.33 79.53 47.3 95.12 178.29 84.72 15.07-8.84-76.41-99.28-32.75-6.76-51.46-53.54-5.2-63.93 47.3-25.47-.52-1.56-56.66 11.95-3.64-11.95Z" />
			<path class="fill-blue"
				d="m363.77 180.94-61.33-38.98-46.26-7.8-49.38 26.51 5.72 54.58 45.22 49.38 33.79 7.28 71.21 96.68s18.71-4.68 34.31-13.51c14.55-8.84 22.87-17.67 29.63-25.47l-62.89-148.66Z" />
			<path class="fill-orange" d="m207.32 61.91 59.77 29.63 47.82-6.24-12.47-24.43-95.12 1.04Z" />
			<path class="stroke-blue" d="m272.29 97.77 5.72 18.19 80.57 53.54-40.54-77.97-45.74 6.24Z" />
			<path class="fill-orange" d="M187.05 82.18 39.43 57.23l-1.04 2.08 151.26 35.86-2.6-12.99" />
			<path d="m184.97 43.72 12.99-6.76 10.92 10.92-6.24-1.04-5.2-4.68-12.47 4.16v-2.6Z"
				style="stroke-width:0;fill:none" />
		</g>
	</g>
	<path class="text"
		d="M468.25 201.79V83.64h76.01c21.69 0 38.36 5.07 50.02 15.2 11.66 10.14 17.49 24.52 17.49 43.15 0 11.03-2.27 20.96-6.82 29.79-4.55 8.83-10.95 15.78-19.23 20.85-5.14 3.21-11.53 5.53-19.17 6.99-7.64 1.45-17.42 2.18-29.34 2.18h-68.97Zm27.5-22.24h35.55c18.93 0 32.34-2.94 40.24-8.83 7.9-5.89 11.85-15.61 11.85-29.18 0-12.07-3.28-21.22-9.84-27.44-6.56-6.22-16.25-9.33-29.06-9.33h-48.74v74.78ZM640.86 201.79v-96.8h23.47v96.8h-23.47ZM690.4 201.79v-96.8h16.21l82.16 64.27v-64.27h21.35v96.8H793.8l-81.94-65.28v65.28H690.4ZM836.39 201.79v-96.8h23.81v39.12l56.45-39.12h34.21l-66.96 44.82 74.45 51.98h-37.34l-60.81-43.71v43.71h-23.81ZM973.73 201.79v-96.8h103.84v17.1h-80.04v21.13h46.61v16.66h-46.61v23.81h81.27v18.11H973.73ZM1100.63 201.79v-96.8h23.81v78.69h75.9v18.11h-99.71ZM570.64 259.47h-77.35v25.37h73.66c11.55 0 19.36 1.98 23.42 5.92 4.06 3.95 6.09 11.29 6.09 22.02v16.21c0 10.73-2.03 18.07-6.09 22.02-4.06 3.95-11.87 5.92-23.42 5.92h-72.99c-11.55 0-19.36-1.97-23.42-5.92-4.06-3.95-6.09-11.29-6.09-22.02v-3.24l24.26-5.03v13.97h83.5v-26.94h-73.66c-11.48 0-19.23-1.97-23.25-5.92s-6.04-11.29-6.04-22.02v-13.08c0-10.73 2.01-18.07 6.04-22.02 4.02-3.95 11.77-5.92 23.25-5.92h67.07c11.1 0 18.76 1.9 22.97 5.7 4.21 3.8 6.32 10.55 6.32 20.23v2.46l-24.26 5.7v-13.41ZM652 260.14v78.69h67.4v-78.69h23.81v73.89c0 8.79-1.77 14.81-5.31 18.05-3.54 3.24-10.27 4.86-20.18 4.86h-64.05c-9.84 0-16.49-1.6-19.95-4.81-3.46-3.2-5.2-9.24-5.2-18.11v-73.89h23.47ZM769.35 356.95v-96.8h87.19c7.97 0 13.75 1.47 17.33 4.42 3.58 2.94 5.37 7.73 5.37 14.36v22.8c0 6.56-1.79 11.29-5.37 14.2s-9.35 4.36-17.33 4.36h-13.3l46.05 36.66h-33.87l-40.58-36.66H792.6v36.66h-23.25Zm77.13-80.15H792.6v26.83h53.88c4.1 0 6.91-.6 8.44-1.79 1.53-1.19 2.29-3.2 2.29-6.04v-11.18c0-2.83-.76-4.84-2.29-6.04-1.53-1.19-4.34-1.79-8.44-1.79ZM953.42 356.95l-58.57-96.8h26.72l41.02 70.2 38.68-70.2h24.48l-56.12 96.8h-16.21ZM1044.3 356.95v-96.8h23.47v96.8h-23.47ZM1146.17 356.95l-58.57-96.8h26.72l41.02 70.2 38.68-70.2h24.48l-56.12 96.8h-16.21ZM1201.16 356.95l57.45-96.8h22.69l58.35 96.8h-26.49l-12.18-21.24h-64.05l-12.18 21.24h-23.59Zm45.83-38.9h44.38l-22.58-40.35-21.8 40.35ZM1356.96 356.95v-96.8h23.81v78.69h75.9v18.11h-99.71ZM1475.06 356.95v-96.8h87.19c7.97 0 13.75 1.47 17.33 4.42 3.58 2.94 5.37 7.73 5.37 14.36v22.8c0 6.56-1.79 11.29-5.37 14.2s-9.35 4.36-17.33 4.36h-13.3l46.05 36.66h-33.87l-40.58-36.66h-22.24v36.66h-23.25Zm77.13-80.15h-53.88v26.83h53.88c4.1 0 6.91-.6 8.44-1.79 1.53-1.19 2.29-3.2 2.29-6.04v-11.18c0-2.83-.76-4.84-2.29-6.04-1.53-1.19-4.34-1.79-8.44-1.79ZM1634.93 260.14v78.69h67.4v-78.69h23.81v73.89c0 8.79-1.77 14.81-5.31 18.05-3.54 3.24-10.27 4.86-20.18 4.86h-64.05c-9.84 0-16.49-1.6-19.95-4.81-3.46-3.2-5.2-9.24-5.2-18.11v-73.89h23.47ZM1752.28 356.95v-96.8h16.21l82.16 64.27v-64.27H1872v96.8h-16.32l-81.94-65.28v65.28h-21.46Z" />
</svg>
