<svg xmlns="http://www.w3.org/2000/svg" xmlns:xlink="http://www.w3.org/1999/xlink"><symbol fill="none" viewBox="0 0 24 24" stroke-width="1.5" stroke="currentColor" class="asize-6" id="adjustments"><path stroke-linecap="round" stroke-linejoin="round" d="M10.5 6h9.75M10.5 6a1.5 1.5 0 1 1-3 0m3 0a1.5 1.5 0 1 0-3 0M3.75 6H7.5m3 12h9.75m-9.75 0a1.5 1.5 0 0 1-3 0m3 0a1.5 1.5 0 0 0-3 0m-3.75 0H7.5m9-6h3.75m-3.75 0a1.5 1.5 0 0 1-3 0m3 0a1.5 1.5 0 0 0-3 0m-9.75 0h9.75"/></symbol><symbol fill="none" viewBox="0 0 24 24" stroke-width="1.5" stroke="currentColor" class="bw-6 bh-6" id="arrow-right"><path stroke-linecap="round" stroke-linejoin="round" d="M13.5 4.5 21 12m0 0-7.5 7.5M21 12H3"/></symbol><symbol fill="none" viewBox="0 0 24 24" stroke-width="1.5" stroke="currentColor" class="cw-6 ch-6" id="bookmark"><path stroke-linecap="round" stroke-linejoin="round" d="M17.593 3.322c1.1.128 1.907 1.077 1.907 2.185V21L12 17.25 4.5 21V5.507c0-1.108.806-2.057 1.907-2.185a48.507 48.507 0 0 1 11.186 0Z"/></symbol><symbol fill="none" viewBox="0 0 24 24" stroke-width="1.5" stroke="currentColor" class="dsize-6" id="chevron-down"><path stroke-linecap="round" stroke-linejoin="round" d="m19.5 8.25-7.5 7.5-7.5-7.5"/></symbol><symbol fill="none" viewBox="0 0 24 24" stroke-width="1.5" stroke="currentColor" class="ew-6 eh-6" id="chevron-right"><path stroke-linecap="round" stroke-linejoin="round" d="m8.25 4.5 7.5 7.5-7.5 7.5"/></symbol><symbol fill="none" viewBox="0 0 16 16" id="heart"><path fill="currentcolor" d="M1.243 8.243 8 15l6.757-6.757a4.243 4.243 0 0 0 1.243-3v-.19A4.052 4.052 0 0 0 11.948 1a4.052 4.052 0 0 0-3.165 1.52L8 3.5l-.783-.98A4.052 4.052 0 0 0 4.052 1 4.052 4.052 0 0 0 0 5.052v.19c0 1.126.447 2.205 1.243 3Z"/></symbol><symbol fill="none" viewBox="0 0 24 24" stroke-width="1.5" stroke="currentColor" class="hw-6 hh-6" id="map"><path stroke-linecap="round" stroke-linejoin="round" d="M9 6.75V15m6-6v8.25m.503 3.498 4.875-2.437c.381-.19.622-.58.622-1.006V4.82c0-.836-.88-1.38-1.628-1.006l-3.869 1.934a1.12 1.12 0 0 1-1.006 0L9.503 3.252a1.125 1.125 0 0 0-1.006 0L3.622 5.689A1.125 1.125 0 0 0 3 6.695V19.18c0 .836.88 1.38 1.628 1.006l3.869-1.934a1.12 1.12 0 0 1 1.006 0l4.994 2.497c.317.158.69.158 1.006 0Z"/></symbol><symbol viewBox="0 0 24 24" fill="currentColor" class="gsize-6" id="map-pin"><path fill-rule="evenodd" d="m11.54 22.351.07.04.028.016a.76.76 0 0 0 .723 0l.028-.015.071-.041a16.975 16.975 0 0 0 1.144-.742 19.58 19.58 0 0 0 2.683-2.282c1.944-1.99 3.963-4.98 3.963-8.827a8.25 8.25 0 0 0-16.5 0c0 3.846 2.02 6.837 3.963 8.827a19.58 19.58 0 0 0 2.682 2.282 16.975 16.975 0 0 0 1.145.742ZM12 13.5a3 3 0 1 0 0-6 3 3 0 0 0 0 6Z" clip-rule="evenodd"/></symbol><symbol fill="none" viewBox="0 0 24 24" stroke-width="1.5" stroke="currentColor" class="iw-6 ih-6" id="tag"><path stroke-linecap="round" stroke-linejoin="round" d="M9.568 3H5.25A2.25 2.25 0 0 0 3 5.25v4.318c0 .597.237 1.17.659 1.591l9.581 9.581c.699.699 1.78.872 2.607.33a18.095 18.095 0 0 0 5.223-5.223c.542-.827.369-1.908-.33-2.607l-9.58-9.58A2.25 2.25 0 0 0 9.568 3Z"/><path stroke-linecap="round" stroke-linejoin="round" d="M6 6h.008v.008H6V6Z"/></symbol></svg>