<?xml version="1.0" encoding="UTF-8" standalone="no"?>
<!DOCTYPE svg PUBLIC "-//W3C//DTD SVG 1.1//EN" "http://www.w3.org/Graphics/SVG/1.1/DTD/svg11.dtd">
<svg width="100%" height="100%" viewBox="0 0 27 32" version="1.1" xmlns="http://www.w3.org/2000/svg" xmlns:xlink="http://www.w3.org/1999/xlink" xml:space="preserve" xmlns:serif="http://www.serif.com/" style="fill-rule:evenodd;clip-rule:evenodd;stroke-linejoin:round;stroke-miterlimit:2;">
    <path d="M13.5,0C6.034,0 0,6.113 0,13.632C0,19.87 4.309,23.996 9.377,26.601C10.837,27.351 11.571,28.764 11.821,30.559C11.928,31.333 12.581,32 13.45,32L13.55,32C14.419,32 15.072,31.333 15.179,30.559C15.429,28.764 16.163,27.351 17.623,26.601C22.489,24.1 27,19.875 27,13.632C27,6.113 20.966,0 13.5,0Z" style="fill:white;fill-opacity:0.5;fill-rule:nonzero;"/>
    <path d="M13.5,1C6.596,1 1,6.655 1,13.632C1,19.319 4.906,23.178 9.834,25.711C11.687,26.664 12.535,28.439 12.811,30.421C12.856,30.747 13.125,31 13.45,31L13.55,31C13.875,31 14.144,30.747 14.189,30.421C14.465,28.439 15.313,26.664 17.166,25.711C21.898,23.279 26,19.319 26,13.632C26,6.655 20.404,1 13.5,1Z" style="fill:rgb(247,136,3);fill-rule:nonzero;"/>
    <g transform="matrix(0.262515,0,0,0.262515,0.276369,-1.30494)">
        <path d="M62.268,59.993L62.268,56.365L51.483,56.365L51.483,50.4L57.422,41.565L42.856,41.559L49.101,50.4L49.101,56.365L38.478,56.365L38.478,59.993L49.101,59.993L49.101,62.388L38.478,62.388L38.478,66.016L49.101,66.016L49.101,70.794L38.564,70.812L38.562,79.09L62.106,79.09L62.11,70.813L51.483,70.794L51.483,66.016L62.268,66.016L62.268,62.388L51.483,62.388L51.483,59.993L62.268,59.993Z" style="fill:white;fill-rule:nonzero;"/>
    </g>
    <g transform="matrix(0.262515,0,0,0.262515,0.276369,-1.30494)">
        <circle cx="50.373" cy="31.903" r="7.494" style="fill:white;"/>
    </g>
    <g transform="matrix(0.262515,0,0,0.262515,0.276369,-1.30494)">
        <path d="M88.352,64.031L66.693,44.224C66.624,44.161 66.376,43.968 66.325,43.933C64.736,42.689 62.755,41.875 60.45,41.755C60.103,42.884 59.787,44.914 60.199,48.257C60.582,51.358 61.893,53.388 61.893,53.388L66.079,53.388L83.445,69.366C84.141,70.007 85.021,70.323 85.897,70.323C86.876,70.323 87.85,69.929 88.565,69.152C89.92,67.679 89.825,65.386 88.352,64.031Z" style="fill:white;fill-rule:nonzero;"/>
    </g>
    <g transform="matrix(0.262515,0,0,0.262515,0.276369,-1.30494)">
        <path d="M12.394,64.031L34.053,44.223C34.122,44.16 34.371,43.967 34.421,43.932C36.01,42.688 37.991,41.874 40.296,41.754C40.643,42.883 40.959,44.913 40.547,48.256C40.164,51.357 38.852,53.387 38.852,53.387L34.667,53.387L17.3,69.365C16.604,70.006 15.725,70.322 14.848,70.322C13.87,70.322 12.895,69.928 12.181,69.151C10.825,67.679 10.92,65.386 12.394,64.031Z" style="fill:white;fill-rule:nonzero;"/>
    </g>
</svg>
